<svg xmlns="http://www.w3.org/2000/svg" width="128" height="128" viewBox="0 0 128 128"><defs>
  <linearGradient id="coat" x1="0" y1="0" x2="1" y2="1"><stop stop-color="#81a19a"/><stop offset=".5" stop-color="#3c6b70"/><stop offset="1" stop-color="#284652"/></linearGradient>
  <linearGradient id="metal" x1="0" y1="0" x2="0" y2="1"><stop stop-color="#e7c98e"/><stop offset=".3" stop-color="#d3a763"/><stop offset="1" stop-color="#82603b"/></linearGradient>
  <linearGradient id="rock" x1="0" y1="0" x2=".5" y2="1"><stop stop-color="#385968"/><stop offset=".42" stop-color="#253e4b"/><stop offset="1" stop-color="#142936"/></linearGradient>
  <linearGradient id="lava" x1="0" y1="0" x2="0" y2="1"><stop stop-color="#fff0ae"/><stop offset=".13" stop-color="#ffb34e"/><stop offset=".35" stop-color="#e76448"/><stop offset="1" stop-color="#6b2530"/></linearGradient>
  <radialGradient id="glow"><stop stop-color="#e2fff0" stop-opacity=".85"/><stop offset=".25" stop-color="#a5f3e0" stop-opacity=".38"/><stop offset="1" stop-color="#a5f3e0" stop-opacity="0"/></radialGradient>
  <radialGradient id="ember"><stop stop-color="#fff4bc" stop-opacity=".9"/><stop offset=".2" stop-color="#ffb553" stop-opacity=".5"/><stop offset="1" stop-color="#e76448" stop-opacity="0"/></radialGradient>
</defs><rect x="0" y="0" width="128" height="128" rx="0" fill="#182f3e" /><path d="M8 8L120 8L120 120L8 120Z" fill="#365761" stroke="#101f2b" stroke-width="5" stroke-linejoin="round" stroke-linecap="round" /><path d="M14 16L111 16L111 52L91 59L14 56Z" fill="#59777a" stroke="none" stroke-width="1" stroke-linejoin="round" stroke-linecap="round" /><rect x="18" y="28" width="44" height="8" rx="0" fill="#d3a763" /><rect x="78" y="24" width="21" height="7" rx="2" fill="#101f2b" /><rect x="78" y="46" width="21" height="7" rx="2" fill="#101f2b" /><rect x="78" y="68" width="21" height="7" rx="2" fill="#101f2b" /><rect x="78" y="90" width="21" height="7" rx="2" fill="#101f2b" /><circle cx="16" cy="16" r="4" fill="#101f2b" /><circle cx="16" cy="15.4" r="3" fill="#d3a763" /><path d="M15 16L17 16" fill="none" stroke="#6a5138" stroke-width="1" stroke-linecap="round" /><circle cx="16" cy="112" r="4" fill="#101f2b" /><circle cx="16" cy="111.4" r="3" fill="#d3a763" /><path d="M15 112L17 112" fill="none" stroke="#6a5138" stroke-width="1" stroke-linecap="round" /><circle cx="112" cy="16" r="4" fill="#101f2b" /><circle cx="112" cy="15.4" r="3" fill="#d3a763" /><path d="M111 16L113 16" fill="none" stroke="#6a5138" stroke-width="1" stroke-linecap="round" /><circle cx="112" cy="112" r="4" fill="#101f2b" /><circle cx="112" cy="111.4" r="3" fill="#d3a763" /><path d="M111 112L113 112" fill="none" stroke="#6a5138" stroke-width="1" stroke-linecap="round" /><rect x="46" y="50" width="1" height="1" rx="0" fill="#bec2a2" opacity="0.18"/><rect x="122" y="83" width="7" height="1" rx="0" fill="#bec2a2" opacity="0.18"/><rect x="57" y="102" width="3" height="1" rx="0" fill="#bec2a2" opacity="0.18"/><rect x="83" y="55" width="1" height="1" rx="0" fill="#bec2a2" opacity="0.18"/><rect x="119" y="113" width="6" height="1" rx="0" fill="#bec2a2" opacity="0.18"/><rect x="33" y="71" width="3" height="1" rx="0" fill="#bec2a2" opacity="0.18"/><rect x="65" y="7" width="7" height="1" rx="0" fill="#bec2a2" opacity="0.18"/><rect x="51" y="117" width="1" height="1" rx="0" fill="#bec2a2" opacity="0.18"/><rect x="126" y="121" width="7" height="1" rx="0" fill="#bec2a2" opacity="0.18"/><rect x="35" y="41" width="1" height="1" rx="0" fill="#bec2a2" opacity="0.18"/><rect x="54" y="66" width="2" height="1" rx="0" fill="#bec2a2" opacity="0.18"/><rect x="89" y="117" width="7" height="1" rx="0" fill="#bec2a2" opacity="0.18"/><rect x="126" y="9" width="2" height="1" rx="0" fill="#bec2a2" opacity="0.18"/><rect x="26" y="53" width="4" height="1" rx="0" fill="#bec2a2" opacity="0.18"/><rect x="48" y="76" width="5" height="1" rx="0" fill="#bec2a2" opacity="0.18"/><rect x="111" y="114" width="6" height="1" rx="0" fill="#bec2a2" opacity="0.18"/><rect x="23" y="9" width="7" height="1" rx="0" fill="#bec2a2" opacity="0.18"/><rect x="79" y="82" width="7" height="1" rx="0" fill="#bec2a2" opacity="0.18"/><rect x="29" y="14" width="6" height="1" rx="0" fill="#bec2a2" opacity="0.18"/><rect x="116" y="59" width="5" height="1" rx="0" fill="#bec2a2" opacity="0.18"/><rect x="123" y="42" width="1" height="1" rx="0" fill="#bec2a2" opacity="0.18"/><rect x="3" y="30" width="6" height="1" rx="0" fill="#bec2a2" opacity="0.18"/><rect x="70" y="119" width="1" height="1" rx="0" fill="#bec2a2" opacity="0.18"/><rect x="107" y="100" width="7" height="1" rx="0" fill="#bec2a2" opacity="0.18"/><rect x="37" y="23" width="4" height="1" rx="0" fill="#bec2a2" opacity="0.18"/><rect x="110" y="52" width="2" height="1" rx="0" fill="#bec2a2" opacity="0.18"/><rect x="67" y="103" width="7" height="1" rx="0" fill="#bec2a2" opacity="0.18"/><rect x="92" y="23" width="2" height="1" rx="0" fill="#bec2a2" opacity="0.18"/><rect x="55" y="13" width="5" height="1" rx="0" fill="#bec2a2" opacity="0.18"/><rect x="22" y="75" width="1" height="1" rx="0" fill="#bec2a2" opacity="0.18"/><rect x="96" y="66" width="5" height="1" rx="0" fill="#bec2a2" opacity="0.18"/><rect x="93" y="103" width="3" height="1" rx="0" fill="#bec2a2" opacity="0.18"/><rect x="74" y="117" width="6" height="1" rx="0" fill="#bec2a2" opacity="0.18"/><rect x="65" y="65" width="4" height="1" rx="0" fill="#bec2a2" opacity="0.18"/><rect x="121" y="70" width="4" height="1" rx="0" fill="#bec2a2" opacity="0.18"/><rect x="103" y="18" width="3" height="1" rx="0" fill="#bec2a2" opacity="0.18"/><rect x="24" y="43" width="3" height="1" rx="0" fill="#bec2a2" opacity="0.18"/><rect x="93" y="94" width="5" height="1" rx="0" fill="#bec2a2" opacity="0.18"/><rect x="23" y="95" width="2" height="1" rx="0" fill="#bec2a2" opacity="0.18"/><rect x="119" y="77" width="6" height="1" rx="0" fill="#bec2a2" opacity="0.18"/><rect x="125" y="67" width="6" height="1" rx="0" fill="#bec2a2" opacity="0.18"/><rect x="86" y="64" width="5" height="1" rx="0" fill="#bec2a2" opacity="0.18"/><rect x="15" y="88" width="6" height="1" rx="0" fill="#bec2a2" opacity="0.18"/><rect x="113" y="73" width="2" height="1" rx="0" fill="#bec2a2" opacity="0.18"/><rect x="2" y="43" width="1" height="1" rx="0" fill="#bec2a2" opacity="0.18"/><rect x="5" y="93" width="3" height="1" rx="0" fill="#bec2a2" opacity="0.18"/><rect x="43" y="104" width="7" height="1" rx="0" fill="#bec2a2" opacity="0.18"/><rect x="10" y="86" width="3" height="1" rx="0" fill="#bec2a2" opacity="0.18"/><rect x="44" y="84" width="2" height="1" rx="0" fill="#bec2a2" opacity="0.18"/><rect x="105" y="94" width="4" height="1" rx="0" fill="#bec2a2" opacity="0.18"/><rect x="102" y="60" width="6" height="1" rx="0" fill="#bec2a2" opacity="0.18"/><rect x="117" y="3" width="3" height="1" rx="0" fill="#bec2a2" opacity="0.18"/><rect x="127" y="112" width="1" height="1" rx="0" fill="#bec2a2" opacity="0.18"/><rect x="17" y="6" width="3" height="1" rx="0" fill="#bec2a2" opacity="0.18"/><rect x="119" y="49" width="6" height="1" rx="0" fill="#bec2a2" opacity="0.18"/><rect x="80" y="108" width="2" height="1" rx="0" fill="#bec2a2" opacity="0.18"/><rect x="47" y="46" width="6" height="1" rx="0" fill="#bec2a2" opacity="0.18"/><rect x="49" y="9" width="6" height="1" rx="0" fill="#bec2a2" opacity="0.18"/><rect x="3" y="44" width="6" height="1" rx="0" fill="#bec2a2" opacity="0.18"/><rect x="77" y="85" width="7" height="1" rx="0" fill="#bec2a2" opacity="0.18"/><rect x="49" y="83" width="3" height="1" rx="0" fill="#bec2a2" opacity="0.18"/><rect x="127" y="110" width="7" height="1" rx="0" fill="#bec2a2" opacity="0.18"/><rect x="104" y="2" width="6" height="1" rx="0" fill="#bec2a2" opacity="0.18"/><rect x="93" y="111" width="2" height="1" rx="0" fill="#bec2a2" opacity="0.18"/><rect x="115" y="61" width="1" height="1" rx="0" fill="#bec2a2" opacity="0.18"/><rect x="22" y="10" width="4" height="1" rx="0" fill="#bec2a2" opacity="0.18"/><rect x="50" y="15" width="1" height="1" rx="0" fill="#bec2a2" opacity="0.18"/><rect x="19" y="77" width="4" height="1" rx="0" fill="#bec2a2" opacity="0.18"/><rect x="9" y="9" width="5" height="1" rx="0" fill="#bec2a2" opacity="0.18"/><rect x="73" y="103" width="6" height="1" rx="0" fill="#bec2a2" opacity="0.18"/><rect x="3" y="64" width="3" height="1" rx="0" fill="#bec2a2" opacity="0.18"/><rect x="58" y="126" width="1" height="1" rx="0" fill="#bec2a2" opacity="0.18"/><rect x="127" y="34" width="7" height="1" rx="0" fill="#bec2a2" opacity="0.18"/><rect x="74" y="120" width="7" height="1" rx="0" fill="#bec2a2" opacity="0.18"/><rect x="41" y="107" width="4" height="1" rx="0" fill="#bec2a2" opacity="0.18"/><rect x="48" y="37" width="5" height="1" rx="0" fill="#bec2a2" opacity="0.18"/><rect x="72" y="39" width="2" height="1" rx="0" fill="#bec2a2" opacity="0.18"/><rect x="93" y="39" width="4" height="1" rx="0" fill="#bec2a2" opacity="0.18"/><rect x="113" y="114" width="6" height="1" rx="0" fill="#bec2a2" opacity="0.18"/><rect x="37" y="78" width="6" height="1" rx="0" fill="#bec2a2" opacity="0.18"/><rect x="55" y="55" width="7" height="1" rx="0" fill="#bec2a2" opacity="0.18"/><rect x="76" y="93" width="6" height="1" rx="0" fill="#bec2a2" opacity="0.18"/><rect x="57" y="75" width="1" height="1" rx="0" fill="#bec2a2" opacity="0.18"/><rect x="23" y="126" width="2" height="1" rx="0" fill="#bec2a2" opacity="0.18"/><rect x="74" y="86" width="3" height="1" rx="0" fill="#bec2a2" opacity="0.18"/><rect x="110" y="68" width="6" height="1" rx="0" fill="#bec2a2" opacity="0.18"/><rect x="12" y="57" width="7" height="1" rx="0" fill="#bec2a2" opacity="0.18"/><rect x="123" y="16" width="2" height="1" rx="0" fill="#bec2a2" opacity="0.18"/><rect x="101" y="49" width="1" height="1" rx="0" fill="#bec2a2" opacity="0.18"/><rect x="86" y="57" width="1" height="1" rx="0" fill="#bec2a2" opacity="0.18"/><rect x="4" y="2" width="3" height="1" rx="0" fill="#bec2a2" opacity="0.18"/><rect x="25" y="32" width="2" height="1" rx="0" fill="#bec2a2" opacity="0.18"/><rect x="17" y="49" width="1" height="1" rx="0" fill="#bec2a2" opacity="0.18"/><rect x="53" y="106" width="7" height="1" rx="0" fill="#bec2a2" opacity="0.18"/><rect x="0" y="44" width="2" height="1" rx="0" fill="#bec2a2" opacity="0.18"/><rect x="75" y="78" width="4" height="1" rx="0" fill="#bec2a2" opacity="0.18"/><rect x="17" y="112" width="1" height="1" rx="0" fill="#bec2a2" opacity="0.18"/><rect x="50" y="62" width="5" height="1" rx="0" fill="#bec2a2" opacity="0.18"/><rect x="58" y="94" width="1" height="1" rx="0" fill="#bec2a2" opacity="0.18"/><rect x="116" y="75" width="2" height="1" rx="0" fill="#bec2a2" opacity="0.18"/><rect x="40" y="61" width="6" height="1" rx="0" fill="#bec2a2" opacity="0.18"/><rect x="30" y="100" width="5" height="1" rx="0" fill="#bec2a2" opacity="0.18"/><rect x="108" y="25" width="1" height="1" rx="0" fill="#bec2a2" opacity="0.18"/><rect x="16" y="96" width="5" height="1" rx="0" fill="#bec2a2" opacity="0.18"/><rect x="32" y="115" width="6" height="1" rx="0" fill="#bec2a2" opacity="0.18"/><rect x="114" y="87" width="6" height="1" rx="0" fill="#bec2a2" opacity="0.18"/><rect x="102" y="60" width="1" height="1" rx="0" fill="#bec2a2" opacity="0.18"/><rect x="124" y="1" width="7" height="1" rx="0" fill="#bec2a2" opacity="0.18"/><rect x="55" y="30" width="7" height="1" rx="0" fill="#bec2a2" opacity="0.18"/><rect x="78" y="105" width="3" height="1" rx="0" fill="#bec2a2" opacity="0.18"/><rect x="9" y="52" width="1" height="1" rx="0" fill="#bec2a2" opacity="0.18"/><rect x="17" y="97" width="6" height="1" rx="0" fill="#bec2a2" opacity="0.18"/><rect x="49" y="118" width="6" height="1" rx="0" fill="#bec2a2" opacity="0.18"/><rect x="22" y="125" width="6" height="1" rx="0" fill="#bec2a2" opacity="0.18"/><rect x="52" y="15" width="2" height="1" rx="0" fill="#bec2a2" opacity="0.18"/><rect x="113" y="105" width="7" height="1" rx="0" fill="#bec2a2" opacity="0.18"/><rect x="119" y="95" width="3" height="1" rx="0" fill="#bec2a2" opacity="0.18"/><rect x="38" y="46" width="6" height="1" rx="0" fill="#bec2a2" opacity="0.18"/><rect x="98" y="38" width="5" height="1" rx="0" fill="#bec2a2" opacity="0.18"/><rect x="107" y="47" width="2" height="1" rx="0" fill="#bec2a2" opacity="0.18"/><rect x="83" y="58" width="1" height="1" rx="0" fill="#bec2a2" opacity="0.18"/><rect x="22" y="78" width="1" height="1" rx="0" fill="#bec2a2" opacity="0.18"/><rect x="78" y="61" width="3" height="1" rx="0" fill="#bec2a2" opacity="0.18"/><rect x="127" y="44" width="5" height="1" rx="0" fill="#bec2a2" opacity="0.18"/><rect x="92" y="116" width="5" height="1" rx="0" fill="#bec2a2" opacity="0.18"/><rect x="26" y="68" width="6" height="1" rx="0" fill="#bec2a2" opacity="0.18"/><rect x="12" y="15" width="3" height="1" rx="0" fill="#bec2a2" opacity="0.18"/><rect x="68" y="111" width="7" height="1" rx="0" fill="#bec2a2" opacity="0.18"/><rect x="114" y="110" width="3" height="1" rx="0" fill="#bec2a2" opacity="0.18"/><rect x="89" y="107" width="3" height="1" rx="0" fill="#bec2a2" opacity="0.18"/><rect x="57" y="121" width="2" height="1" rx="0" fill="#bec2a2" opacity="0.18"/><rect x="97" y="99" width="7" height="1" rx="0" fill="#bec2a2" opacity="0.18"/><rect x="17" y="85" width="7" height="1" rx="0" fill="#bec2a2" opacity="0.18"/><rect x="124" y="61" width="4" height="1" rx="0" fill="#bec2a2" opacity="0.18"/><rect x="105" y="102" width="2" height="1" rx="0" fill="#bec2a2" opacity="0.18"/><rect x="37" y="29" width="1" height="1" rx="0" fill="#bec2a2" opacity="0.18"/><rect x="26" y="75" width="3" height="1" rx="0" fill="#bec2a2" opacity="0.18"/><rect x="13" y="39" width="5" height="1" rx="0" fill="#bec2a2" opacity="0.18"/><rect x="58" y="117" width="6" height="1" rx="0" fill="#bec2a2" opacity="0.18"/><rect x="49" y="8" width="1" height="1" rx="0" fill="#bec2a2" opacity="0.18"/><rect x="52" y="76" width="7" height="1" rx="0" fill="#bec2a2" opacity="0.18"/><rect x="45" y="26" width="3" height="1" rx="0" fill="#bec2a2" opacity="0.18"/><rect x="113" y="67" width="1" height="1" rx="0" fill="#bec2a2" opacity="0.18"/><rect x="121" y="37" width="3" height="1" rx="0" fill="#bec2a2" opacity="0.18"/><rect x="120" y="78" width="6" height="1" rx="0" fill="#bec2a2" opacity="0.18"/><rect x="111" y="113" width="4" height="1" rx="0" fill="#bec2a2" opacity="0.18"/><rect x="72" y="2" width="2" height="1" rx="0" fill="#bec2a2" opacity="0.18"/><rect x="90" y="115" width="1" height="1" rx="0" fill="#bec2a2" opacity="0.18"/><rect x="103" y="100" width="3" height="1" rx="0" fill="#bec2a2" opacity="0.18"/><rect x="50" y="124" width="2" height="1" rx="0" fill="#bec2a2" opacity="0.18"/><rect x="11" y="23" width="5" height="1" rx="0" fill="#bec2a2" opacity="0.18"/><rect x="58" y="126" width="1" height="1" rx="0" fill="#bec2a2" opacity="0.18"/><rect x="38" y="27" width="6" height="1" rx="0" fill="#bec2a2" opacity="0.18"/><rect x="114" y="16" width="2" height="1" rx="0" fill="#bec2a2" opacity="0.18"/><rect x="0" y="27" width="4" height="1" rx="0" fill="#bec2a2" opacity="0.18"/><rect x="60" y="90" width="6" height="1" rx="0" fill="#bec2a2" opacity="0.18"/><rect x="26" y="6" width="2" height="1" rx="0" fill="#bec2a2" opacity="0.18"/><rect x="55" y="37" width="5" height="1" rx="0" fill="#bec2a2" opacity="0.18"/><rect x="96" y="70" width="7" height="1" rx="0" fill="#bec2a2" opacity="0.18"/><rect x="64" y="84" width="1" height="1" rx="0" fill="#bec2a2" opacity="0.18"/><rect x="67" y="17" width="7" height="1" rx="0" fill="#bec2a2" opacity="0.18"/><rect x="86" y="38" width="5" height="1" rx="0" fill="#bec2a2" opacity="0.18"/><rect x="38" y="82" width="2" height="1" rx="0" fill="#bec2a2" opacity="0.18"/><rect x="109" y="92" width="4" height="1" rx="0" fill="#bec2a2" opacity="0.18"/><rect x="36" y="55" width="3" height="1" rx="0" fill="#bec2a2" opacity="0.18"/><rect x="114" y="59" width="6" height="1" rx="0" fill="#bec2a2" opacity="0.18"/><rect x="67" y="41" width="2" height="1" rx="0" fill="#bec2a2" opacity="0.18"/><rect x="63" y="51" width="6" height="1" rx="0" fill="#bec2a2" opacity="0.18"/><rect x="78" y="124" width="4" height="1" rx="0" fill="#bec2a2" opacity="0.18"/><rect x="35" y="115" width="4" height="1" rx="0" fill="#bec2a2" opacity="0.18"/><rect x="41" y="39" width="3" height="1" rx="0" fill="#bec2a2" opacity="0.18"/><rect x="38" y="23" width="7" height="1" rx="0" fill="#bec2a2" opacity="0.18"/><rect x="40" y="6" width="6" height="1" rx="0" fill="#bec2a2" opacity="0.18"/><rect x="121" y="82" width="6" height="1" rx="0" fill="#bec2a2" opacity="0.18"/><rect x="23" y="125" width="6" height="1" rx="0" fill="#bec2a2" opacity="0.18"/><rect x="98" y="67" width="2" height="1" rx="0" fill="#bec2a2" opacity="0.18"/><rect x="74" y="116" width="1" height="1" rx="0" fill="#bec2a2" opacity="0.18"/><rect x="11" y="107" width="2" height="1" rx="0" fill="#bec2a2" opacity="0.18"/><rect x="54" y="75" width="1" height="1" rx="0" fill="#bec2a2" opacity="0.18"/><rect x="95" y="62" width="3" height="1" rx="0" fill="#bec2a2" opacity="0.18"/><rect x="59" y="24" width="2" height="1" rx="0" fill="#bec2a2" opacity="0.18"/><rect x="115" y="71" width="6" height="1" rx="0" fill="#bec2a2" opacity="0.18"/><rect x="73" y="52" width="1" height="1" rx="0" fill="#bec2a2" opacity="0.18"/><rect x="27" y="2" width="6" height="1" rx="0" fill="#bec2a2" opacity="0.18"/><rect x="45" y="97" width="5" height="1" rx="0" fill="#bec2a2" opacity="0.18"/><rect x="57" y="12" width="7" height="1" rx="0" fill="#bec2a2" opacity="0.18"/><rect x="72" y="69" width="2" height="1" rx="0" fill="#bec2a2" opacity="0.18"/><rect x="4" y="64" width="4" height="1" rx="0" fill="#bec2a2" opacity="0.18"/><rect x="83" y="105" width="2" height="1" rx="0" fill="#bec2a2" opacity="0.18"/><rect x="63" y="88" width="1" height="1" rx="0" fill="#bec2a2" opacity="0.18"/><rect x="68" y="50" width="4" height="1" rx="0" fill="#bec2a2" opacity="0.18"/><rect x="18" y="13" width="3" height="1" rx="0" fill="#bec2a2" opacity="0.18"/><rect x="19" y="44" width="7" height="1" rx="0" fill="#bec2a2" opacity="0.18"/><rect x="2" y="1" width="6" height="1" rx="0" fill="#bec2a2" opacity="0.18"/><rect x="78" y="3" width="1" height="1" rx="0" fill="#bec2a2" opacity="0.18"/><rect x="97" y="113" width="2" height="1" rx="0" fill="#bec2a2" opacity="0.18"/><rect x="4" y="37" width="3" height="1" rx="0" fill="#bec2a2" opacity="0.18"/><rect x="117" y="7" width="7" height="1" rx="0" fill="#bec2a2" opacity="0.18"/><rect x="118" y="113" width="1" height="1" rx="0" fill="#bec2a2" opacity="0.18"/><rect x="62" y="111" width="2" height="1" rx="0" fill="#bec2a2" opacity="0.18"/><rect x="57" y="15" width="2" height="1" rx="0" fill="#bec2a2" opacity="0.18"/><rect x="4" y="7" width="4" height="1" rx="0" fill="#bec2a2" opacity="0.18"/><rect x="77" y="81" width="3" height="1" rx="0" fill="#bec2a2" opacity="0.18"/><rect x="47" y="59" width="6" height="1" rx="0" fill="#bec2a2" opacity="0.18"/><rect x="125" y="60" width="6" height="1" rx="0" fill="#bec2a2" opacity="0.18"/><rect x="89" y="78" width="7" height="1" rx="0" fill="#bec2a2" opacity="0.18"/><rect x="91" y="11" width="5" height="1" rx="0" fill="#bec2a2" opacity="0.18"/><rect x="42" y="117" width="7" height="1" rx="0" fill="#bec2a2" opacity="0.18"/><rect x="72" y="27" width="5" height="1" rx="0" fill="#bec2a2" opacity="0.18"/><rect x="35" y="33" width="5" height="1" rx="0" fill="#bec2a2" opacity="0.18"/><rect x="19" y="58" width="3" height="1" rx="0" fill="#bec2a2" opacity="0.18"/><rect x="72" y="92" width="3" height="1" rx="0" fill="#bec2a2" opacity="0.18"/><rect x="84" y="11" width="2" height="1" rx="0" fill="#bec2a2" opacity="0.18"/><rect x="52" y="12" width="1" height="1" rx="0" fill="#bec2a2" opacity="0.18"/><rect x="17" y="49" width="6" height="1" rx="0" fill="#bec2a2" opacity="0.18"/><rect x="91" y="18" width="7" height="1" rx="0" fill="#bec2a2" opacity="0.18"/><rect x="90" y="86" width="3" height="1" rx="0" fill="#bec2a2" opacity="0.18"/><rect x="127" y="16" width="2" height="1" rx="0" fill="#bec2a2" opacity="0.18"/><rect x="102" y="77" width="4" height="1" rx="0" fill="#bec2a2" opacity="0.18"/><rect x="4" y="39" width="5" height="1" rx="0" fill="#bec2a2" opacity="0.18"/><rect x="19" y="57" width="1" height="1" rx="0" fill="#bec2a2" opacity="0.18"/><rect x="17" y="71" width="1" height="1" rx="0" fill="#bec2a2" opacity="0.18"/><rect x="112" y="3" width="7" height="1" rx="0" fill="#bec2a2" opacity="0.18"/><rect x="100" y="63" width="6" height="1" rx="0" fill="#bec2a2" opacity="0.18"/><rect x="84" y="13" width="3" height="1" rx="0" fill="#bec2a2" opacity="0.18"/><rect x="62" y="20" width="1" height="1" rx="0" fill="#bec2a2" opacity="0.18"/><rect x="77" y="81" width="2" height="1" rx="0" fill="#bec2a2" opacity="0.18"/><rect x="67" y="78" width="3" height="1" rx="0" fill="#bec2a2" opacity="0.18"/><rect x="20" y="58" width="5" height="1" rx="0" fill="#bec2a2" opacity="0.18"/><rect x="101" y="47" width="3" height="1" rx="0" fill="#bec2a2" opacity="0.18"/><rect x="47" y="86" width="4" height="1" rx="0" fill="#bec2a2" opacity="0.18"/><rect x="30" y="113" width="2" height="1" rx="0" fill="#bec2a2" opacity="0.18"/><rect x="0" y="73" width="2" height="1" rx="0" fill="#bec2a2" opacity="0.18"/><rect x="76" y="115" width="2" height="1" rx="0" fill="#bec2a2" opacity="0.18"/><rect x="79" y="90" width="7" height="1" rx="0" fill="#bec2a2" opacity="0.18"/><rect x="22" y="54" width="4" height="1" rx="0" fill="#bec2a2" opacity="0.18"/><rect x="32" y="120" width="4" height="1" rx="0" fill="#bec2a2" opacity="0.18"/><rect x="34" y="105" width="3" height="1" rx="0" fill="#bec2a2" opacity="0.18"/><rect x="14" y="96" width="4" height="1" rx="0" fill="#bec2a2" opacity="0.18"/><rect x="12" y="9" width="6" height="1" rx="0" fill="#bec2a2" opacity="0.18"/><rect x="117" y="108" width="5" height="1" rx="0" fill="#bec2a2" opacity="0.18"/><rect x="0" y="75" width="2" height="1" rx="0" fill="#bec2a2" opacity="0.18"/><rect x="69" y="72" width="6" height="1" rx="0" fill="#bec2a2" opacity="0.18"/><rect x="24" y="83" width="2" height="1" rx="0" fill="#bec2a2" opacity="0.18"/><rect x="89" y="35" width="6" height="1" rx="0" fill="#bec2a2" opacity="0.18"/><rect x="43" y="39" width="4" height="1" rx="0" fill="#bec2a2" opacity="0.18"/><rect x="8" y="75" width="2" height="1" rx="0" fill="#bec2a2" opacity="0.18"/><rect x="99" y="87" width="1" height="1" rx="0" fill="#bec2a2" opacity="0.18"/><rect x="63" y="120" width="1" height="1" rx="0" fill="#bec2a2" opacity="0.18"/><rect x="38" y="44" width="5" height="1" rx="0" fill="#bec2a2" opacity="0.18"/><rect x="47" y="48" width="5" height="1" rx="0" fill="#bec2a2" opacity="0.18"/><rect x="104" y="7" width="1" height="1" rx="0" fill="#bec2a2" opacity="0.18"/><rect x="104" y="45" width="2" height="1" rx="0" fill="#bec2a2" opacity="0.18"/><rect x="52" y="3" width="2" height="1" rx="0" fill="#bec2a2" opacity="0.18"/><rect x="16" y="47" width="6" height="1" rx="0" fill="#bec2a2" opacity="0.18"/><rect x="61" y="32" width="5" height="1" rx="0" fill="#bec2a2" opacity="0.18"/><rect x="89" y="123" width="7" height="1" rx="0" fill="#bec2a2" opacity="0.18"/><rect x="115" y="119" width="7" height="1" rx="0" fill="#bec2a2" opacity="0.18"/><rect x="20" y="44" width="1" height="1" rx="0" fill="#bec2a2" opacity="0.18"/><rect x="83" y="16" width="3" height="1" rx="0" fill="#bec2a2" opacity="0.18"/></svg>
