<svg xmlns="http://www.w3.org/2000/svg" width="128" height="128" viewBox="0 0 128 128"><defs>
  <linearGradient id="coat" x1="0" y1="0" x2="1" y2="1"><stop stop-color="#81a19a"/><stop offset=".5" stop-color="#3c6b70"/><stop offset="1" stop-color="#284652"/></linearGradient>
  <linearGradient id="metal" x1="0" y1="0" x2="0" y2="1"><stop stop-color="#e7c98e"/><stop offset=".3" stop-color="#d3a763"/><stop offset="1" stop-color="#82603b"/></linearGradient>
  <linearGradient id="rock" x1="0" y1="0" x2=".5" y2="1"><stop stop-color="#385968"/><stop offset=".42" stop-color="#253e4b"/><stop offset="1" stop-color="#142936"/></linearGradient>
  <linearGradient id="lava" x1="0" y1="0" x2="0" y2="1"><stop stop-color="#fff0ae"/><stop offset=".13" stop-color="#ffb34e"/><stop offset=".35" stop-color="#e76448"/><stop offset="1" stop-color="#6b2530"/></linearGradient>
  <radialGradient id="glow"><stop stop-color="#e2fff0" stop-opacity=".85"/><stop offset=".25" stop-color="#a5f3e0" stop-opacity=".38"/><stop offset="1" stop-color="#a5f3e0" stop-opacity="0"/></radialGradient>
  <radialGradient id="ember"><stop stop-color="#fff4bc" stop-opacity=".9"/><stop offset=".2" stop-color="#ffb553" stop-opacity=".5"/><stop offset="1" stop-color="#e76448" stop-opacity="0"/></radialGradient>
</defs><rect x="0" y="0" width="128" height="128" rx="0" fill="#2b454e" /><path d="M-32 0L-5 0L123 128L96 128Z" fill="#d3a763" stroke="none" stroke-width="1" stroke-linejoin="round" stroke-linecap="round" /><path d="M0 0L27 0L155 128L128 128Z" fill="#d3a763" stroke="none" stroke-width="1" stroke-linejoin="round" stroke-linecap="round" /><path d="M32 0L59 0L187 128L160 128Z" fill="#d3a763" stroke="none" stroke-width="1" stroke-linejoin="round" stroke-linecap="round" /><path d="M64 0L91 0L219 128L192 128Z" fill="#d3a763" stroke="none" stroke-width="1" stroke-linejoin="round" stroke-linecap="round" /><path d="M96 0L123 0L251 128L224 128Z" fill="#d3a763" stroke="none" stroke-width="1" stroke-linejoin="round" stroke-linecap="round" /><rect x="0" y="0" width="128" height="7" rx="0" fill="#142734" /><rect x="0" y="121" width="128" height="7" rx="0" fill="#142734" /><rect x="67" y="97" width="6" height="1" rx="0" fill="#101f2b" opacity="0.28"/><rect x="78" y="72" width="2" height="1" rx="0" fill="#101f2b" opacity="0.28"/><rect x="99" y="42" width="5" height="1" rx="0" fill="#101f2b" opacity="0.28"/><rect x="122" y="46" width="6" height="1" rx="0" fill="#101f2b" opacity="0.28"/><rect x="18" y="64" width="3" height="1" rx="0" fill="#101f2b" opacity="0.28"/><rect x="53" y="43" width="6" height="1" rx="0" fill="#101f2b" opacity="0.28"/><rect x="104" y="21" width="3" height="1" rx="0" fill="#101f2b" opacity="0.28"/><rect x="61" y="54" width="3" height="1" rx="0" fill="#101f2b" opacity="0.28"/><rect x="82" y="106" width="4" height="1" rx="0" fill="#101f2b" opacity="0.28"/><rect x="96" y="114" width="2" height="1" rx="0" fill="#101f2b" opacity="0.28"/><rect x="125" y="17" width="5" height="1" rx="0" fill="#101f2b" opacity="0.28"/><rect x="26" y="1" width="3" height="1" rx="0" fill="#101f2b" opacity="0.28"/><rect x="41" y="100" width="3" height="1" rx="0" fill="#101f2b" opacity="0.28"/><rect x="23" y="33" width="6" height="1" rx="0" fill="#101f2b" opacity="0.28"/><rect x="10" y="3" width="1" height="1" rx="0" fill="#101f2b" opacity="0.28"/><rect x="62" y="105" width="5" height="1" rx="0" fill="#101f2b" opacity="0.28"/><rect x="23" y="109" width="3" height="1" rx="0" fill="#101f2b" opacity="0.28"/><rect x="41" y="125" width="5" height="1" rx="0" fill="#101f2b" opacity="0.28"/><rect x="71" y="3" width="1" height="1" rx="0" fill="#101f2b" opacity="0.28"/><rect x="90" y="89" width="5" height="1" rx="0" fill="#101f2b" opacity="0.28"/><rect x="83" y="84" width="6" height="1" rx="0" fill="#101f2b" opacity="0.28"/><rect x="94" y="69" width="2" height="1" rx="0" fill="#101f2b" opacity="0.28"/><rect x="120" y="120" width="2" height="1" rx="0" fill="#101f2b" opacity="0.28"/><rect x="75" y="24" width="6" height="1" rx="0" fill="#101f2b" opacity="0.28"/><rect x="42" y="79" width="5" height="1" rx="0" fill="#101f2b" opacity="0.28"/><rect x="40" y="26" width="7" height="1" rx="0" fill="#101f2b" opacity="0.28"/><rect x="112" y="5" width="2" height="1" rx="0" fill="#101f2b" opacity="0.28"/><rect x="17" y="51" width="2" height="1" rx="0" fill="#101f2b" opacity="0.28"/><rect x="38" y="30" width="3" height="1" rx="0" fill="#101f2b" opacity="0.28"/><rect x="100" y="28" width="7" height="1" rx="0" fill="#101f2b" opacity="0.28"/><rect x="45" y="19" width="4" height="1" rx="0" fill="#101f2b" opacity="0.28"/><rect x="26" y="32" width="5" height="1" rx="0" fill="#101f2b" opacity="0.28"/><rect x="55" y="6" width="1" height="1" rx="0" fill="#101f2b" opacity="0.28"/><rect x="3" y="106" width="3" height="1" rx="0" fill="#101f2b" opacity="0.28"/><rect x="87" y="26" width="2" height="1" rx="0" fill="#101f2b" opacity="0.28"/><rect x="20" y="88" width="1" height="1" rx="0" fill="#101f2b" opacity="0.28"/><rect x="87" y="29" width="6" height="1" rx="0" fill="#101f2b" opacity="0.28"/><rect x="46" y="86" width="7" height="1" rx="0" fill="#101f2b" opacity="0.28"/><rect x="52" y="53" width="3" height="1" rx="0" fill="#101f2b" opacity="0.28"/><rect x="47" y="76" width="6" height="1" rx="0" fill="#101f2b" opacity="0.28"/><rect x="58" y="57" width="2" height="1" rx="0" fill="#101f2b" opacity="0.28"/><rect x="126" y="57" width="4" height="1" rx="0" fill="#101f2b" opacity="0.28"/><rect x="35" y="95" width="6" height="1" rx="0" fill="#101f2b" opacity="0.28"/><rect x="47" y="31" width="3" height="1" rx="0" fill="#101f2b" opacity="0.28"/><rect x="40" y="67" width="5" height="1" rx="0" fill="#101f2b" opacity="0.28"/><rect x="30" y="119" width="1" height="1" rx="0" fill="#101f2b" opacity="0.28"/><rect x="91" y="35" width="4" height="1" rx="0" fill="#101f2b" opacity="0.28"/><rect x="116" y="102" width="2" height="1" rx="0" fill="#101f2b" opacity="0.28"/><rect x="101" y="109" width="1" height="1" rx="0" fill="#101f2b" opacity="0.28"/><rect x="46" y="95" width="6" height="1" rx="0" fill="#101f2b" opacity="0.28"/><rect x="83" y="110" width="1" height="1" rx="0" fill="#101f2b" opacity="0.28"/><rect x="41" y="7" width="3" height="1" rx="0" fill="#101f2b" opacity="0.28"/><rect x="2" y="103" width="7" height="1" rx="0" fill="#101f2b" opacity="0.28"/><rect x="115" y="51" width="5" height="1" rx="0" fill="#101f2b" opacity="0.28"/><rect x="78" y="111" width="2" height="1" rx="0" fill="#101f2b" opacity="0.28"/><rect x="102" y="47" width="1" height="1" rx="0" fill="#101f2b" opacity="0.28"/><rect x="48" y="55" width="1" height="1" rx="0" fill="#101f2b" opacity="0.28"/><rect x="127" y="77" width="1" height="1" rx="0" fill="#101f2b" opacity="0.28"/><rect x="38" y="16" width="2" height="1" rx="0" fill="#101f2b" opacity="0.28"/><rect x="80" y="77" width="1" height="1" rx="0" fill="#101f2b" opacity="0.28"/><rect x="59" y="30" width="4" height="1" rx="0" fill="#101f2b" opacity="0.28"/><rect x="11" y="103" width="6" height="1" rx="0" fill="#101f2b" opacity="0.28"/><rect x="27" y="39" width="7" height="1" rx="0" fill="#101f2b" opacity="0.28"/><rect x="60" y="62" width="1" height="1" rx="0" fill="#101f2b" opacity="0.28"/><rect x="9" y="117" width="5" height="1" rx="0" fill="#101f2b" opacity="0.28"/><rect x="120" y="58" width="4" height="1" rx="0" fill="#101f2b" opacity="0.28"/><rect x="122" y="43" width="1" height="1" rx="0" fill="#101f2b" opacity="0.28"/><rect x="11" y="89" width="6" height="1" rx="0" fill="#101f2b" opacity="0.28"/><rect x="121" y="22" width="6" height="1" rx="0" fill="#101f2b" opacity="0.28"/><rect x="112" y="64" width="3" height="1" rx="0" fill="#101f2b" opacity="0.28"/><rect x="34" y="79" width="7" height="1" rx="0" fill="#101f2b" opacity="0.28"/><rect x="37" y="71" width="2" height="1" rx="0" fill="#101f2b" opacity="0.28"/><rect x="57" y="19" width="1" height="1" rx="0" fill="#101f2b" opacity="0.28"/><rect x="81" y="1" width="3" height="1" rx="0" fill="#101f2b" opacity="0.28"/><rect x="6" y="5" width="7" height="1" rx="0" fill="#101f2b" opacity="0.28"/><rect x="115" y="26" width="1" height="1" rx="0" fill="#101f2b" opacity="0.28"/><rect x="73" y="127" width="7" height="1" rx="0" fill="#101f2b" opacity="0.28"/><rect x="46" y="9" width="2" height="1" rx="0" fill="#101f2b" opacity="0.28"/><rect x="96" y="33" width="3" height="1" rx="0" fill="#101f2b" opacity="0.28"/><rect x="3" y="76" width="1" height="1" rx="0" fill="#101f2b" opacity="0.28"/><rect x="100" y="84" width="6" height="1" rx="0" fill="#101f2b" opacity="0.28"/><rect x="69" y="32" width="4" height="1" rx="0" fill="#101f2b" opacity="0.28"/><rect x="3" y="68" width="2" height="1" rx="0" fill="#101f2b" opacity="0.28"/><rect x="121" y="80" width="7" height="1" rx="0" fill="#101f2b" opacity="0.28"/><rect x="87" y="121" width="7" height="1" rx="0" fill="#101f2b" opacity="0.28"/><rect x="111" y="34" width="7" height="1" rx="0" fill="#101f2b" opacity="0.28"/><rect x="52" y="24" width="3" height="1" rx="0" fill="#101f2b" opacity="0.28"/><rect x="51" y="53" width="7" height="1" rx="0" fill="#101f2b" opacity="0.28"/><rect x="58" y="41" width="7" height="1" rx="0" fill="#101f2b" opacity="0.28"/><rect x="57" y="97" width="7" height="1" rx="0" fill="#101f2b" opacity="0.28"/><rect x="64" y="62" width="2" height="1" rx="0" fill="#101f2b" opacity="0.28"/><rect x="13" y="48" width="4" height="1" rx="0" fill="#101f2b" opacity="0.28"/><rect x="81" y="12" width="4" height="1" rx="0" fill="#101f2b" opacity="0.28"/><rect x="97" y="27" width="6" height="1" rx="0" fill="#101f2b" opacity="0.28"/><rect x="123" y="60" width="4" height="1" rx="0" fill="#101f2b" opacity="0.28"/><rect x="92" y="79" width="4" height="1" rx="0" fill="#101f2b" opacity="0.28"/><rect x="76" y="3" width="6" height="1" rx="0" fill="#101f2b" opacity="0.28"/><rect x="34" y="49" width="6" height="1" rx="0" fill="#101f2b" opacity="0.28"/><rect x="18" y="11" width="6" height="1" rx="0" fill="#101f2b" opacity="0.28"/><rect x="85" y="123" width="3" height="1" rx="0" fill="#101f2b" opacity="0.28"/><rect x="109" y="38" width="1" height="1" rx="0" fill="#101f2b" opacity="0.28"/><rect x="95" y="123" width="5" height="1" rx="0" fill="#101f2b" opacity="0.28"/><rect x="34" y="66" width="7" height="1" rx="0" fill="#101f2b" opacity="0.28"/><rect x="65" y="51" width="2" height="1" rx="0" fill="#101f2b" opacity="0.28"/><rect x="9" y="65" width="6" height="1" rx="0" fill="#101f2b" opacity="0.28"/><rect x="54" y="18" width="6" height="1" rx="0" fill="#101f2b" opacity="0.28"/><rect x="61" y="99" width="5" height="1" rx="0" fill="#101f2b" opacity="0.28"/><rect x="98" y="123" width="6" height="1" rx="0" fill="#101f2b" opacity="0.28"/><rect x="33" y="31" width="3" height="1" rx="0" fill="#101f2b" opacity="0.28"/><rect x="106" y="48" width="7" height="1" rx="0" fill="#101f2b" opacity="0.28"/><rect x="22" y="101" width="3" height="1" rx="0" fill="#101f2b" opacity="0.28"/><rect x="42" y="25" width="5" height="1" rx="0" fill="#101f2b" opacity="0.28"/><rect x="99" y="16" width="2" height="1" rx="0" fill="#101f2b" opacity="0.28"/><rect x="100" y="69" width="7" height="1" rx="0" fill="#101f2b" opacity="0.28"/><rect x="51" y="69" width="2" height="1" rx="0" fill="#101f2b" opacity="0.28"/><rect x="123" y="102" width="5" height="1" rx="0" fill="#101f2b" opacity="0.28"/><rect x="117" y="77" width="1" height="1" rx="0" fill="#101f2b" opacity="0.28"/><rect x="102" y="32" width="4" height="1" rx="0" fill="#101f2b" opacity="0.28"/><rect x="32" y="18" width="3" height="1" rx="0" fill="#101f2b" opacity="0.28"/><rect x="64" y="10" width="3" height="1" rx="0" fill="#101f2b" opacity="0.28"/><rect x="32" y="102" width="7" height="1" rx="0" fill="#101f2b" opacity="0.28"/><rect x="22" y="11" width="3" height="1" rx="0" fill="#101f2b" opacity="0.28"/><rect x="73" y="96" width="3" height="1" rx="0" fill="#101f2b" opacity="0.28"/><rect x="93" y="39" width="6" height="1" rx="0" fill="#101f2b" opacity="0.28"/><rect x="11" y="24" width="7" height="1" rx="0" fill="#101f2b" opacity="0.28"/><rect x="25" y="108" width="2" height="1" rx="0" fill="#101f2b" opacity="0.28"/><rect x="44" y="93" width="2" height="1" rx="0" fill="#101f2b" opacity="0.28"/><rect x="2" y="7" width="4" height="1" rx="0" fill="#101f2b" opacity="0.28"/><rect x="77" y="120" width="1" height="1" rx="0" fill="#101f2b" opacity="0.28"/><rect x="56" y="32" width="3" height="1" rx="0" fill="#101f2b" opacity="0.28"/><rect x="79" y="73" width="1" height="1" rx="0" fill="#101f2b" opacity="0.28"/><rect x="26" y="23" width="6" height="1" rx="0" fill="#101f2b" opacity="0.28"/><rect x="71" y="23" width="2" height="1" rx="0" fill="#101f2b" opacity="0.28"/><rect x="127" y="82" width="4" height="1" rx="0" fill="#101f2b" opacity="0.28"/><rect x="111" y="49" width="6" height="1" rx="0" fill="#101f2b" opacity="0.28"/><rect x="57" y="8" width="7" height="1" rx="0" fill="#101f2b" opacity="0.28"/><rect x="92" y="63" width="6" height="1" rx="0" fill="#101f2b" opacity="0.28"/><rect x="13" y="76" width="2" height="1" rx="0" fill="#101f2b" opacity="0.28"/><rect x="11" y="121" width="7" height="1" rx="0" fill="#101f2b" opacity="0.28"/><rect x="105" y="19" width="6" height="1" rx="0" fill="#101f2b" opacity="0.28"/><rect x="32" y="58" width="1" height="1" rx="0" fill="#101f2b" opacity="0.28"/><rect x="89" y="60" width="2" height="1" rx="0" fill="#101f2b" opacity="0.28"/><rect x="1" y="88" width="3" height="1" rx="0" fill="#101f2b" opacity="0.28"/><rect x="122" y="119" width="1" height="1" rx="0" fill="#101f2b" opacity="0.28"/><rect x="107" y="1" width="5" height="1" rx="0" fill="#101f2b" opacity="0.28"/><rect x="67" y="44" width="4" height="1" rx="0" fill="#101f2b" opacity="0.28"/><rect x="38" y="17" width="3" height="1" rx="0" fill="#101f2b" opacity="0.28"/><rect x="14" y="4" width="7" height="1" rx="0" fill="#101f2b" opacity="0.28"/><rect x="26" y="119" width="7" height="1" rx="0" fill="#101f2b" opacity="0.28"/><rect x="14" y="117" width="2" height="1" rx="0" fill="#101f2b" opacity="0.28"/><rect x="83" y="66" width="7" height="1" rx="0" fill="#101f2b" opacity="0.28"/><rect x="41" y="123" width="5" height="1" rx="0" fill="#101f2b" opacity="0.28"/><rect x="48" y="100" width="1" height="1" rx="0" fill="#101f2b" opacity="0.28"/><rect x="84" y="23" width="2" height="1" rx="0" fill="#101f2b" opacity="0.28"/><rect x="122" y="102" width="3" height="1" rx="0" fill="#101f2b" opacity="0.28"/><rect x="70" y="74" width="4" height="1" rx="0" fill="#101f2b" opacity="0.28"/><rect x="103" y="1" width="6" height="1" rx="0" fill="#101f2b" opacity="0.28"/><rect x="76" y="10" width="4" height="1" rx="0" fill="#101f2b" opacity="0.28"/><rect x="24" y="19" width="3" height="1" rx="0" fill="#101f2b" opacity="0.28"/><rect x="9" y="67" width="1" height="1" rx="0" fill="#101f2b" opacity="0.28"/><rect x="17" y="13" width="1" height="1" rx="0" fill="#101f2b" opacity="0.28"/><rect x="51" y="50" width="3" height="1" rx="0" fill="#101f2b" opacity="0.28"/><rect x="73" y="87" width="5" height="1" rx="0" fill="#101f2b" opacity="0.28"/><rect x="53" y="13" width="2" height="1" rx="0" fill="#101f2b" opacity="0.28"/><rect x="50" y="7" width="3" height="1" rx="0" fill="#101f2b" opacity="0.28"/><rect x="120" y="74" width="1" height="1" rx="0" fill="#101f2b" opacity="0.28"/><rect x="13" y="127" width="6" height="1" rx="0" fill="#101f2b" opacity="0.28"/><rect x="83" y="38" width="5" height="1" rx="0" fill="#101f2b" opacity="0.28"/><rect x="95" y="59" width="7" height="1" rx="0" fill="#101f2b" opacity="0.28"/><rect x="56" y="41" width="1" height="1" rx="0" fill="#101f2b" opacity="0.28"/><rect x="91" y="104" width="4" height="1" rx="0" fill="#101f2b" opacity="0.28"/><rect x="102" y="124" width="3" height="1" rx="0" fill="#101f2b" opacity="0.28"/><rect x="17" y="122" width="5" height="1" rx="0" fill="#101f2b" opacity="0.28"/><rect x="98" y="122" width="4" height="1" rx="0" fill="#101f2b" opacity="0.28"/><rect x="47" y="105" width="4" height="1" rx="0" fill="#101f2b" opacity="0.28"/><rect x="87" y="55" width="3" height="1" rx="0" fill="#101f2b" opacity="0.28"/><rect x="63" y="120" width="7" height="1" rx="0" fill="#101f2b" opacity="0.28"/><rect x="92" y="16" width="7" height="1" rx="0" fill="#101f2b" opacity="0.28"/><rect x="12" y="42" width="1" height="1" rx="0" fill="#101f2b" opacity="0.28"/><rect x="72" y="113" width="2" height="1" rx="0" fill="#101f2b" opacity="0.28"/><rect x="31" y="93" width="4" height="1" rx="0" fill="#101f2b" opacity="0.28"/><rect x="62" y="36" width="4" height="1" rx="0" fill="#101f2b" opacity="0.28"/><rect x="85" y="76" width="2" height="1" rx="0" fill="#101f2b" opacity="0.28"/><rect x="30" y="60" width="2" height="1" rx="0" fill="#101f2b" opacity="0.28"/><rect x="52" y="73" width="2" height="1" rx="0" fill="#101f2b" opacity="0.28"/><rect x="56" y="110" width="7" height="1" rx="0" fill="#101f2b" opacity="0.28"/><rect x="52" y="99" width="7" height="1" rx="0" fill="#101f2b" opacity="0.28"/><rect x="63" y="120" width="6" height="1" rx="0" fill="#101f2b" opacity="0.28"/><rect x="58" y="27" width="1" height="1" rx="0" fill="#101f2b" opacity="0.28"/><rect x="113" y="29" width="6" height="1" rx="0" fill="#101f2b" opacity="0.28"/><rect x="52" y="109" width="2" height="1" rx="0" fill="#101f2b" opacity="0.28"/><rect x="29" y="11" width="2" height="1" rx="0" fill="#101f2b" opacity="0.28"/><rect x="88" y="108" width="4" height="1" rx="0" fill="#101f2b" opacity="0.28"/><rect x="78" y="111" width="3" height="1" rx="0" fill="#101f2b" opacity="0.28"/><rect x="4" y="8" width="7" height="1" rx="0" fill="#101f2b" opacity="0.28"/><rect x="51" y="73" width="7" height="1" rx="0" fill="#101f2b" opacity="0.28"/><rect x="114" y="101" width="5" height="1" rx="0" fill="#101f2b" opacity="0.28"/><rect x="19" y="35" width="4" height="1" rx="0" fill="#101f2b" opacity="0.28"/><rect x="76" y="83" width="5" height="1" rx="0" fill="#101f2b" opacity="0.28"/><rect x="104" y="87" width="2" height="1" rx="0" fill="#101f2b" opacity="0.28"/><rect x="57" y="19" width="6" height="1" rx="0" fill="#101f2b" opacity="0.28"/><rect x="26" y="62" width="1" height="1" rx="0" fill="#101f2b" opacity="0.28"/><rect x="68" y="117" width="3" height="1" rx="0" fill="#101f2b" opacity="0.28"/><rect x="42" y="30" width="1" height="1" rx="0" fill="#101f2b" opacity="0.28"/><rect x="24" y="27" width="6" height="1" rx="0" fill="#101f2b" opacity="0.28"/><rect x="78" y="47" width="6" height="1" rx="0" fill="#101f2b" opacity="0.28"/><rect x="59" y="5" width="7" height="1" rx="0" fill="#101f2b" opacity="0.28"/><rect x="118" y="88" width="3" height="1" rx="0" fill="#101f2b" opacity="0.28"/><rect x="92" y="58" width="4" height="1" rx="0" fill="#101f2b" opacity="0.28"/><rect x="107" y="2" width="7" height="1" rx="0" fill="#101f2b" opacity="0.28"/><rect x="123" y="117" width="3" height="1" rx="0" fill="#101f2b" opacity="0.28"/><rect x="110" y="125" width="1" height="1" rx="0" fill="#101f2b" opacity="0.28"/><rect x="119" y="55" width="1" height="1" rx="0" fill="#101f2b" opacity="0.28"/><rect x="115" y="105" width="7" height="1" rx="0" fill="#101f2b" opacity="0.28"/><rect x="122" y="23" width="4" height="1" rx="0" fill="#101f2b" opacity="0.28"/><rect x="97" y="109" width="6" height="1" rx="0" fill="#101f2b" opacity="0.28"/><rect x="112" y="110" width="5" height="1" rx="0" fill="#101f2b" opacity="0.28"/><rect x="4" y="16" width="2" height="1" rx="0" fill="#101f2b" opacity="0.28"/><rect x="0" y="14" width="7" height="1" rx="0" fill="#101f2b" opacity="0.28"/><rect x="52" y="93" width="3" height="1" rx="0" fill="#101f2b" opacity="0.28"/><rect x="55" y="74" width="4" height="1" rx="0" fill="#101f2b" opacity="0.28"/><rect x="99" y="72" width="2" height="1" rx="0" fill="#101f2b" opacity="0.28"/><rect x="125" y="123" width="5" height="1" rx="0" fill="#101f2b" opacity="0.28"/><rect x="60" y="18" width="2" height="1" rx="0" fill="#101f2b" opacity="0.28"/><rect x="30" y="50" width="1" height="1" rx="0" fill="#101f2b" opacity="0.28"/><rect x="5" y="54" width="6" height="1" rx="0" fill="#101f2b" opacity="0.28"/><rect x="109" y="19" width="5" height="1" rx="0" fill="#101f2b" opacity="0.28"/><rect x="82" y="63" width="1" height="1" rx="0" fill="#101f2b" opacity="0.28"/><rect x="104" y="114" width="2" height="1" rx="0" fill="#101f2b" opacity="0.28"/><rect x="59" y="85" width="1" height="1" rx="0" fill="#101f2b" opacity="0.28"/><rect x="67" y="19" width="2" height="1" rx="0" fill="#101f2b" opacity="0.28"/><rect x="99" y="78" width="3" height="1" rx="0" fill="#101f2b" opacity="0.28"/><rect x="10" y="91" width="4" height="1" rx="0" fill="#101f2b" opacity="0.28"/><rect x="23" y="56" width="7" height="1" rx="0" fill="#101f2b" opacity="0.28"/><rect x="5" y="7" width="5" height="1" rx="0" fill="#101f2b" opacity="0.28"/><rect x="121" y="39" width="2" height="1" rx="0" fill="#101f2b" opacity="0.28"/><rect x="50" y="106" width="1" height="1" rx="0" fill="#101f2b" opacity="0.28"/><rect x="73" y="27" width="4" height="1" rx="0" fill="#101f2b" opacity="0.28"/><rect x="72" y="28" width="1" height="1" rx="0" fill="#101f2b" opacity="0.28"/><rect x="94" y="0" width="2" height="1" rx="0" fill="#101f2b" opacity="0.28"/><rect x="122" y="124" width="5" height="1" rx="0" fill="#101f2b" opacity="0.28"/><rect x="110" y="112" width="3" height="1" rx="0" fill="#101f2b" opacity="0.28"/><rect x="120" y="58" width="6" height="1" rx="0" fill="#101f2b" opacity="0.28"/><rect x="118" y="2" width="6" height="1" rx="0" fill="#101f2b" opacity="0.28"/><rect x="45" y="17" width="2" height="1" rx="0" fill="#101f2b" opacity="0.28"/><rect x="70" y="58" width="5" height="1" rx="0" fill="#101f2b" opacity="0.28"/><rect x="96" y="76" width="1" height="1" rx="0" fill="#101f2b" opacity="0.28"/><rect x="70" y="23" width="4" height="1" rx="0" fill="#101f2b" opacity="0.28"/><rect x="33" y="93" width="1" height="1" rx="0" fill="#101f2b" opacity="0.28"/><rect x="1" y="26" width="6" height="1" rx="0" fill="#101f2b" opacity="0.28"/><rect x="20" y="60" width="7" height="1" rx="0" fill="#101f2b" opacity="0.28"/><rect x="127" y="109" width="1" height="1" rx="0" fill="#101f2b" opacity="0.28"/><rect x="104" y="5" width="7" height="1" rx="0" fill="#101f2b" opacity="0.28"/><rect x="95" y="40" width="5" height="1" rx="0" fill="#101f2b" opacity="0.28"/><rect x="124" y="76" width="2" height="1" rx="0" fill="#101f2b" opacity="0.28"/><rect x="55" y="51" width="7" height="1" rx="0" fill="#101f2b" opacity="0.28"/><rect x="21" y="111" width="6" height="1" rx="0" fill="#101f2b" opacity="0.28"/><rect x="23" y="66" width="3" height="1" rx="0" fill="#101f2b" opacity="0.28"/><rect x="92" y="15" width="7" height="1" rx="0" fill="#101f2b" opacity="0.28"/><rect x="3" y="111" width="7" height="1" rx="0" fill="#101f2b" opacity="0.28"/><rect x="13" y="67" width="4" height="1" rx="0" fill="#101f2b" opacity="0.28"/><rect x="126" y="21" width="6" height="1" rx="0" fill="#101f2b" opacity="0.28"/><rect x="86" y="107" width="5" height="1" rx="0" fill="#101f2b" opacity="0.28"/><rect x="64" y="44" width="2" height="1" rx="0" fill="#101f2b" opacity="0.28"/><rect x="110" y="84" width="4" height="1" rx="0" fill="#101f2b" opacity="0.28"/><rect x="24" y="98" width="6" height="1" rx="0" fill="#101f2b" opacity="0.28"/><rect x="8" y="36" width="4" height="1" rx="0" fill="#101f2b" opacity="0.28"/><rect x="8" y="18" width="3" height="1" rx="0" fill="#101f2b" opacity="0.28"/><rect x="55" y="72" width="5" height="1" rx="0" fill="#101f2b" opacity="0.28"/><rect x="97" y="120" width="1" height="1" rx="0" fill="#101f2b" opacity="0.28"/><rect x="2" y="33" width="7" height="1" rx="0" fill="#101f2b" opacity="0.28"/><rect x="104" y="0" width="6" height="1" rx="0" fill="#101f2b" opacity="0.28"/><rect x="11" y="104" width="5" height="1" rx="0" fill="#101f2b" opacity="0.28"/><rect x="37" y="33" width="2" height="1" rx="0" fill="#101f2b" opacity="0.28"/><rect x="110" y="32" width="3" height="1" rx="0" fill="#101f2b" opacity="0.28"/><rect x="11" y="100" width="7" height="1" rx="0" fill="#101f2b" opacity="0.28"/><rect x="105" y="69" width="7" height="1" rx="0" fill="#101f2b" opacity="0.28"/><rect x="120" y="71" width="1" height="1" rx="0" fill="#101f2b" opacity="0.28"/><rect x="110" y="86" width="6" height="1" rx="0" fill="#101f2b" opacity="0.28"/><rect x="51" y="46" width="4" height="1" rx="0" fill="#101f2b" opacity="0.28"/><rect x="0" y="83" width="2" height="1" rx="0" fill="#101f2b" opacity="0.28"/><rect x="117" y="64" width="7" height="1" rx="0" fill="#101f2b" opacity="0.28"/><rect x="79" y="104" width="4" height="1" rx="0" fill="#101f2b" opacity="0.28"/><rect x="111" y="103" width="7" height="1" rx="0" fill="#101f2b" opacity="0.28"/><rect x="50" y="86" width="4" height="1" rx="0" fill="#101f2b" opacity="0.28"/><rect x="4" y="83" width="1" height="1" rx="0" fill="#101f2b" opacity="0.28"/><rect x="67" y="118" width="1" height="1" rx="0" fill="#101f2b" opacity="0.28"/><rect x="47" y="116" width="1" height="1" rx="0" fill="#101f2b" opacity="0.28"/><rect x="45" y="36" width="3" height="1" rx="0" fill="#101f2b" opacity="0.28"/><rect x="6" y="37" width="7" height="1" rx="0" fill="#101f2b" opacity="0.28"/><rect x="18" y="118" width="3" height="1" rx="0" fill="#101f2b" opacity="0.28"/><rect x="103" y="98" width="5" height="1" rx="0" fill="#101f2b" opacity="0.28"/><rect x="117" y="59" width="4" height="1" rx="0" fill="#101f2b" opacity="0.28"/><rect x="10" y="78" width="5" height="1" rx="0" fill="#101f2b" opacity="0.28"/><rect x="48" y="70" width="7" height="1" rx="0" fill="#101f2b" opacity="0.28"/><rect x="14" y="119" width="1" height="1" rx="0" fill="#101f2b" opacity="0.28"/><rect x="120" y="117" width="4" height="1" rx="0" fill="#101f2b" opacity="0.28"/><rect x="7" y="28" width="3" height="1" rx="0" fill="#101f2b" opacity="0.28"/><rect x="97" y="120" width="3" height="1" rx="0" fill="#101f2b" opacity="0.28"/><rect x="125" y="33" width="5" height="1" rx="0" fill="#101f2b" opacity="0.28"/><rect x="90" y="38" width="5" height="1" rx="0" fill="#101f2b" opacity="0.28"/><rect x="6" y="121" width="5" height="1" rx="0" fill="#101f2b" opacity="0.28"/><rect x="33" y="8" width="1" height="1" rx="0" fill="#101f2b" opacity="0.28"/><rect x="64" y="82" width="5" height="1" rx="0" fill="#101f2b" opacity="0.28"/><rect x="56" y="22" width="1" height="1" rx="0" fill="#101f2b" opacity="0.28"/><rect x="17" y="54" width="6" height="1" rx="0" fill="#101f2b" opacity="0.28"/><rect x="51" y="50" width="3" height="1" rx="0" fill="#101f2b" opacity="0.28"/><rect x="9" y="17" width="7" height="1" rx="0" fill="#101f2b" opacity="0.28"/><rect x="108" y="3" width="4" height="1" rx="0" fill="#101f2b" opacity="0.28"/><rect x="103" y="123" width="7" height="1" rx="0" fill="#101f2b" opacity="0.28"/><rect x="86" y="97" width="4" height="1" rx="0" fill="#101f2b" opacity="0.28"/><rect x="31" y="15" width="4" height="1" rx="0" fill="#101f2b" opacity="0.28"/><rect x="62" y="61" width="6" height="1" rx="0" fill="#101f2b" opacity="0.28"/><rect x="44" y="82" width="4" height="1" rx="0" fill="#101f2b" opacity="0.28"/><rect x="57" y="43" width="4" height="1" rx="0" fill="#101f2b" opacity="0.28"/><rect x="67" y="82" width="7" height="1" rx="0" fill="#101f2b" opacity="0.28"/><rect x="85" y="86" width="6" height="1" rx="0" fill="#101f2b" opacity="0.28"/><rect x="81" y="90" width="1" height="1" rx="0" fill="#101f2b" opacity="0.28"/><rect x="109" y="13" width="4" height="1" rx="0" fill="#101f2b" opacity="0.28"/><rect x="26" y="5" width="7" height="1" rx="0" fill="#101f2b" opacity="0.28"/><rect x="13" y="67" width="7" height="1" rx="0" fill="#101f2b" opacity="0.28"/><rect x="21" y="78" width="5" height="1" rx="0" fill="#101f2b" opacity="0.28"/><rect x="58" y="35" width="3" height="1" rx="0" fill="#101f2b" opacity="0.28"/><rect x="85" y="44" width="5" height="1" rx="0" fill="#101f2b" opacity="0.28"/><rect x="76" y="19" width="2" height="1" rx="0" fill="#101f2b" opacity="0.28"/><rect x="49" y="41" width="1" height="1" rx="0" fill="#101f2b" opacity="0.28"/><rect x="73" y="82" width="1" height="1" rx="0" fill="#101f2b" opacity="0.28"/><rect x="110" y="35" width="7" height="1" rx="0" fill="#101f2b" opacity="0.28"/><rect x="57" y="102" width="6" height="1" rx="0" fill="#101f2b" opacity="0.28"/><rect x="78" y="100" width="2" height="1" rx="0" fill="#101f2b" opacity="0.28"/><rect x="78" y="79" width="5" height="1" rx="0" fill="#101f2b" opacity="0.28"/><rect x="114" y="98" width="6" height="1" rx="0" fill="#101f2b" opacity="0.28"/><rect x="38" y="7" width="1" height="1" rx="0" fill="#101f2b" opacity="0.28"/><rect x="10" y="77" width="6" height="1" rx="0" fill="#101f2b" opacity="0.28"/><rect x="101" y="72" width="5" height="1" rx="0" fill="#101f2b" opacity="0.28"/><rect x="99" y="28" width="6" height="1" rx="0" fill="#101f2b" opacity="0.28"/><rect x="104" y="20" width="3" height="1" rx="0" fill="#101f2b" opacity="0.28"/><rect x="119" y="42" width="2" height="1" rx="0" fill="#101f2b" opacity="0.28"/><rect x="8" y="94" width="6" height="1" rx="0" fill="#101f2b" opacity="0.28"/><rect x="124" y="1" width="4" height="1" rx="0" fill="#101f2b" opacity="0.28"/><rect x="14" y="75" width="3" height="1" rx="0" fill="#101f2b" opacity="0.28"/><rect x="22" y="121" width="6" height="1" rx="0" fill="#101f2b" opacity="0.28"/><rect x="20" y="94" width="3" height="1" rx="0" fill="#101f2b" opacity="0.28"/><rect x="21" y="1" width="7" height="1" rx="0" fill="#101f2b" opacity="0.28"/><rect x="7" y="62" width="6" height="1" rx="0" fill="#101f2b" opacity="0.28"/><rect x="114" y="57" width="7" height="1" rx="0" fill="#101f2b" opacity="0.28"/><rect x="6" y="69" width="7" height="1" rx="0" fill="#101f2b" opacity="0.28"/><rect x="47" y="3" width="7" height="1" rx="0" fill="#101f2b" opacity="0.28"/><rect x="104" y="51" width="5" height="1" rx="0" fill="#101f2b" opacity="0.28"/><rect x="43" y="73" width="5" height="1" rx="0" fill="#101f2b" opacity="0.28"/></svg>
