<svg xmlns="http://www.w3.org/2000/svg" width="128" height="128" viewBox="0 0 128 128"><defs>
  <linearGradient id="coat" x1="0" y1="0" x2="1" y2="1"><stop stop-color="#81a19a"/><stop offset=".5" stop-color="#3c6b70"/><stop offset="1" stop-color="#284652"/></linearGradient>
  <linearGradient id="metal" x1="0" y1="0" x2="0" y2="1"><stop stop-color="#e7c98e"/><stop offset=".3" stop-color="#d3a763"/><stop offset="1" stop-color="#82603b"/></linearGradient>
  <linearGradient id="rock" x1="0" y1="0" x2=".5" y2="1"><stop stop-color="#385968"/><stop offset=".42" stop-color="#253e4b"/><stop offset="1" stop-color="#142936"/></linearGradient>
  <linearGradient id="lava" x1="0" y1="0" x2="0" y2="1"><stop stop-color="#fff0ae"/><stop offset=".13" stop-color="#ffb34e"/><stop offset=".35" stop-color="#e76448"/><stop offset="1" stop-color="#6b2530"/></linearGradient>
  <radialGradient id="glow"><stop stop-color="#e2fff0" stop-opacity=".85"/><stop offset=".25" stop-color="#a5f3e0" stop-opacity=".38"/><stop offset="1" stop-color="#a5f3e0" stop-opacity="0"/></radialGradient>
  <radialGradient id="ember"><stop stop-color="#fff4bc" stop-opacity=".9"/><stop offset=".2" stop-color="#ffb553" stop-opacity=".5"/><stop offset="1" stop-color="#e76448" stop-opacity="0"/></radialGradient>
</defs><rect x="0" y="0" width="128" height="128" rx="0" fill="url(#rock)" /><path d="M0 12L32 8L66 18L106 7L128 11L128 32L91 38L41 28L0 37Z" fill="#3b5e69" stroke="none" stroke-width="1" stroke-linejoin="round" stroke-linecap="round" /><path d="M0 44L36 38L75 48L115 33L128 38L128 76L83 66L44 79L0 66Z" fill="#2f4e5c" stroke="none" stroke-width="1" stroke-linejoin="round" stroke-linecap="round" /><path d="M0 86L37 75L79 87L128 74L128 112L91 110L61 122L0 114Z" fill="#244351" stroke="none" stroke-width="1" stroke-linejoin="round" stroke-linecap="round" /><path d="M0 33L32 27L53 33L76 30L103 36L128 29M0 74L34 70L49 76L91 66L128 73M15 128L28 99L22 80M83 68L77 44L85 33M106 128L98 111L106 95" fill="none" stroke="#102936" stroke-width="2" stroke-linejoin="round" stroke-linecap="round" /><path d="M39 95L60 92L57 97L41 99Z" fill="#8b8970" stroke="none" stroke-width="1" stroke-linejoin="round" stroke-linecap="round" opacity=".32"/><path d="M101 111L121 108L118 113L103 115Z" fill="#56717a" stroke="none" stroke-width="1" stroke-linejoin="round" stroke-linecap="round" opacity=".32"/><path d="M42 17L50 14L47 19L44 21Z" fill="#56717a" stroke="none" stroke-width="1" stroke-linejoin="round" stroke-linecap="round" opacity=".32"/><path d="M5 82L25 79L22 84L7 86Z" fill="#8b8970" stroke="none" stroke-width="1" stroke-linejoin="round" stroke-linecap="round" opacity=".32"/><path d="M64 27L76 24L73 29L66 31Z" fill="#56717a" stroke="none" stroke-width="1" stroke-linejoin="round" stroke-linecap="round" opacity=".32"/><path d="M23 30L43 27L40 32L25 34Z" fill="#56717a" stroke="none" stroke-width="1" stroke-linejoin="round" stroke-linecap="round" opacity=".32"/><path d="M17 25L32 22L29 27L19 29Z" fill="#8b8970" stroke="none" stroke-width="1" stroke-linejoin="round" stroke-linecap="round" opacity=".32"/><path d="M71 17L77 14L74 19L73 21Z" fill="#56717a" stroke="none" stroke-width="1" stroke-linejoin="round" stroke-linecap="round" opacity=".32"/><path d="M77 65L85 62L82 67L79 69Z" fill="#56717a" stroke="none" stroke-width="1" stroke-linejoin="round" stroke-linecap="round" opacity=".32"/><path d="M88 73L106 70L103 75L90 77Z" fill="#8b8970" stroke="none" stroke-width="1" stroke-linejoin="round" stroke-linecap="round" opacity=".32"/><path d="M107 20L115 17L112 22L109 24Z" fill="#56717a" stroke="none" stroke-width="1" stroke-linejoin="round" stroke-linecap="round" opacity=".32"/><path d="M79 89L86 86L83 91L81 93Z" fill="#56717a" stroke="none" stroke-width="1" stroke-linejoin="round" stroke-linecap="round" opacity=".32"/><path d="M1 7L8 4L5 9L3 11Z" fill="#8b8970" stroke="none" stroke-width="1" stroke-linejoin="round" stroke-linecap="round" opacity=".32"/><path d="M12 101L26 98L23 103L14 105Z" fill="#56717a" stroke="none" stroke-width="1" stroke-linejoin="round" stroke-linecap="round" opacity=".32"/><path d="M78 1L94 -2L91 3L80 5Z" fill="#56717a" stroke="none" stroke-width="1" stroke-linejoin="round" stroke-linecap="round" opacity=".32"/><rect x="1" y="6" width="7" height="1" rx="0" fill="#92a9a0" opacity="0.11"/><rect x="108" y="125" width="1" height="1" rx="0" fill="#92a9a0" opacity="0.11"/><rect x="18" y="78" width="7" height="1" rx="0" fill="#92a9a0" opacity="0.11"/><rect x="90" y="8" width="1" height="1" rx="0" fill="#92a9a0" opacity="0.11"/><rect x="31" y="41" width="5" height="1" rx="0" fill="#92a9a0" opacity="0.11"/><rect x="72" y="80" width="6" height="1" rx="0" fill="#92a9a0" opacity="0.11"/><rect x="95" y="96" width="4" height="1" rx="0" fill="#92a9a0" opacity="0.11"/><rect x="57" y="69" width="7" height="1" rx="0" fill="#92a9a0" opacity="0.11"/><rect x="35" y="83" width="1" height="1" rx="0" fill="#92a9a0" opacity="0.11"/><rect x="106" y="51" width="2" height="1" rx="0" fill="#92a9a0" opacity="0.11"/><rect x="115" y="113" width="6" height="1" rx="0" fill="#92a9a0" opacity="0.11"/><rect x="75" y="42" width="6" height="1" rx="0" fill="#92a9a0" opacity="0.11"/><rect x="23" y="59" width="4" height="1" rx="0" fill="#92a9a0" opacity="0.11"/><rect x="23" y="20" width="7" height="1" rx="0" fill="#92a9a0" opacity="0.11"/><rect x="0" y="22" width="3" height="1" rx="0" fill="#92a9a0" opacity="0.11"/><rect x="48" y="84" width="3" height="1" rx="0" fill="#92a9a0" opacity="0.11"/><rect x="28" y="13" width="4" height="1" rx="0" fill="#92a9a0" opacity="0.11"/><rect x="32" y="125" width="6" height="1" rx="0" fill="#92a9a0" opacity="0.11"/><rect x="88" y="70" width="5" height="1" rx="0" fill="#92a9a0" opacity="0.11"/><rect x="103" y="35" width="3" height="1" rx="0" fill="#92a9a0" opacity="0.11"/><rect x="96" y="60" width="2" height="1" rx="0" fill="#92a9a0" opacity="0.11"/><rect x="97" y="124" width="3" height="1" rx="0" fill="#92a9a0" opacity="0.11"/><rect x="74" y="46" width="2" height="1" rx="0" fill="#92a9a0" opacity="0.11"/><rect x="53" y="116" width="1" height="1" rx="0" fill="#92a9a0" opacity="0.11"/><rect x="50" y="77" width="6" height="1" rx="0" fill="#92a9a0" opacity="0.11"/><rect x="45" y="38" width="1" height="1" rx="0" fill="#92a9a0" opacity="0.11"/><rect x="101" y="25" width="1" height="1" rx="0" fill="#92a9a0" opacity="0.11"/><rect x="103" y="68" width="6" height="1" rx="0" fill="#92a9a0" opacity="0.11"/><rect x="14" y="104" width="2" height="1" rx="0" fill="#92a9a0" opacity="0.11"/><rect x="113" y="126" width="2" height="1" rx="0" fill="#92a9a0" opacity="0.11"/><rect x="89" y="20" width="7" height="1" rx="0" fill="#92a9a0" opacity="0.11"/><rect x="94" y="63" width="6" height="1" rx="0" fill="#92a9a0" opacity="0.11"/><rect x="49" y="91" width="7" height="1" rx="0" fill="#92a9a0" opacity="0.11"/><rect x="15" y="34" width="3" height="1" rx="0" fill="#92a9a0" opacity="0.11"/><rect x="85" y="66" width="6" height="1" rx="0" fill="#92a9a0" opacity="0.11"/><rect x="116" y="113" width="2" height="1" rx="0" fill="#92a9a0" opacity="0.11"/><rect x="90" y="27" width="4" height="1" rx="0" fill="#92a9a0" opacity="0.11"/><rect x="29" y="66" width="3" height="1" rx="0" fill="#92a9a0" opacity="0.11"/><rect x="64" y="76" width="2" height="1" rx="0" fill="#92a9a0" opacity="0.11"/><rect x="98" y="122" width="2" height="1" rx="0" fill="#92a9a0" opacity="0.11"/><rect x="121" y="58" width="5" height="1" rx="0" fill="#92a9a0" opacity="0.11"/><rect x="49" y="17" width="7" height="1" rx="0" fill="#92a9a0" opacity="0.11"/><rect x="0" y="21" width="1" height="1" rx="0" fill="#92a9a0" opacity="0.11"/><rect x="119" y="44" width="1" height="1" rx="0" fill="#92a9a0" opacity="0.11"/><rect x="57" y="17" width="6" height="1" rx="0" fill="#92a9a0" opacity="0.11"/><rect x="43" y="104" width="5" height="1" rx="0" fill="#92a9a0" opacity="0.11"/><rect x="111" y="115" width="7" height="1" rx="0" fill="#92a9a0" opacity="0.11"/><rect x="23" y="61" width="3" height="1" rx="0" fill="#92a9a0" opacity="0.11"/><rect x="97" y="95" width="7" height="1" rx="0" fill="#92a9a0" opacity="0.11"/><rect x="107" y="11" width="5" height="1" rx="0" fill="#92a9a0" opacity="0.11"/><rect x="94" y="59" width="5" height="1" rx="0" fill="#92a9a0" opacity="0.11"/><rect x="0" y="40" width="1" height="1" rx="0" fill="#92a9a0" opacity="0.11"/><rect x="63" y="84" width="5" height="1" rx="0" fill="#92a9a0" opacity="0.11"/><rect x="33" y="21" width="5" height="1" rx="0" fill="#92a9a0" opacity="0.11"/><rect x="29" y="48" width="3" height="1" rx="0" fill="#92a9a0" opacity="0.11"/><rect x="18" y="47" width="7" height="1" rx="0" fill="#92a9a0" opacity="0.11"/><rect x="87" y="16" width="4" height="1" rx="0" fill="#92a9a0" opacity="0.11"/><rect x="101" y="44" width="5" height="1" rx="0" fill="#92a9a0" opacity="0.11"/><rect x="22" y="109" width="1" height="1" rx="0" fill="#92a9a0" opacity="0.11"/><rect x="94" y="98" width="2" height="1" rx="0" fill="#92a9a0" opacity="0.11"/><rect x="68" y="74" width="2" height="1" rx="0" fill="#92a9a0" opacity="0.11"/><rect x="0" y="71" width="7" height="1" rx="0" fill="#92a9a0" opacity="0.11"/><rect x="59" y="0" width="6" height="1" rx="0" fill="#92a9a0" opacity="0.11"/><rect x="111" y="67" width="4" height="1" rx="0" fill="#92a9a0" opacity="0.11"/><rect x="79" y="102" width="6" height="1" rx="0" fill="#92a9a0" opacity="0.11"/><rect x="98" y="110" width="2" height="1" rx="0" fill="#92a9a0" opacity="0.11"/><rect x="21" y="33" width="7" height="1" rx="0" fill="#92a9a0" opacity="0.11"/><rect x="91" y="72" width="6" height="1" rx="0" fill="#92a9a0" opacity="0.11"/><rect x="90" y="111" width="2" height="1" rx="0" fill="#92a9a0" opacity="0.11"/><rect x="94" y="115" width="4" height="1" rx="0" fill="#92a9a0" opacity="0.11"/><rect x="110" y="120" width="6" height="1" rx="0" fill="#92a9a0" opacity="0.11"/><rect x="69" y="126" width="7" height="1" rx="0" fill="#92a9a0" opacity="0.11"/><rect x="119" y="126" width="6" height="1" rx="0" fill="#92a9a0" opacity="0.11"/><rect x="114" y="78" width="2" height="1" rx="0" fill="#92a9a0" opacity="0.11"/><rect x="45" y="23" width="4" height="1" rx="0" fill="#92a9a0" opacity="0.11"/><rect x="37" y="93" width="1" height="1" rx="0" fill="#92a9a0" opacity="0.11"/><rect x="127" y="59" width="7" height="1" rx="0" fill="#92a9a0" opacity="0.11"/><rect x="114" y="103" width="2" height="1" rx="0" fill="#92a9a0" opacity="0.11"/><rect x="19" y="102" width="6" height="1" rx="0" fill="#92a9a0" opacity="0.11"/><rect x="63" y="69" width="3" height="1" rx="0" fill="#92a9a0" opacity="0.11"/><rect x="54" y="79" width="4" height="1" rx="0" fill="#92a9a0" opacity="0.11"/><rect x="20" y="44" width="5" height="1" rx="0" fill="#92a9a0" opacity="0.11"/><rect x="59" y="83" width="3" height="1" rx="0" fill="#92a9a0" opacity="0.11"/><rect x="90" y="115" width="2" height="1" rx="0" fill="#92a9a0" opacity="0.11"/><rect x="36" y="38" width="1" height="1" rx="0" fill="#92a9a0" opacity="0.11"/><rect x="4" y="123" width="3" height="1" rx="0" fill="#92a9a0" opacity="0.11"/><rect x="72" y="92" width="1" height="1" rx="0" fill="#92a9a0" opacity="0.11"/><rect x="95" y="55" width="7" height="1" rx="0" fill="#92a9a0" opacity="0.11"/><rect x="108" y="36" width="3" height="1" rx="0" fill="#92a9a0" opacity="0.11"/><rect x="51" y="7" width="6" height="1" rx="0" fill="#92a9a0" opacity="0.11"/><rect x="88" y="120" width="1" height="1" rx="0" fill="#92a9a0" opacity="0.11"/><rect x="60" y="98" width="5" height="1" rx="0" fill="#92a9a0" opacity="0.11"/><rect x="116" y="94" width="1" height="1" rx="0" fill="#92a9a0" opacity="0.11"/><rect x="66" y="1" width="2" height="1" rx="0" fill="#92a9a0" opacity="0.11"/><rect x="127" y="40" width="7" height="1" rx="0" fill="#92a9a0" opacity="0.11"/><rect x="102" y="9" width="5" height="1" rx="0" fill="#92a9a0" opacity="0.11"/><rect x="4" y="69" width="3" height="1" rx="0" fill="#92a9a0" opacity="0.11"/><rect x="18" y="106" width="2" height="1" rx="0" fill="#92a9a0" opacity="0.11"/><rect x="12" y="21" width="2" height="1" rx="0" fill="#92a9a0" opacity="0.11"/><rect x="20" y="74" width="1" height="1" rx="0" fill="#92a9a0" opacity="0.11"/><rect x="98" y="28" width="4" height="1" rx="0" fill="#92a9a0" opacity="0.11"/><rect x="1" y="7" width="7" height="1" rx="0" fill="#92a9a0" opacity="0.11"/><rect x="28" y="42" width="4" height="1" rx="0" fill="#92a9a0" opacity="0.11"/><rect x="101" y="110" width="2" height="1" rx="0" fill="#92a9a0" opacity="0.11"/><rect x="69" y="70" width="1" height="1" rx="0" fill="#92a9a0" opacity="0.11"/><rect x="39" y="55" width="2" height="1" rx="0" fill="#92a9a0" opacity="0.11"/><rect x="15" y="84" width="6" height="1" rx="0" fill="#92a9a0" opacity="0.11"/><rect x="48" y="96" width="3" height="1" rx="0" fill="#92a9a0" opacity="0.11"/><rect x="4" y="45" width="3" height="1" rx="0" fill="#92a9a0" opacity="0.11"/><rect x="103" y="86" width="7" height="1" rx="0" fill="#92a9a0" opacity="0.11"/><rect x="18" y="29" width="7" height="1" rx="0" fill="#92a9a0" opacity="0.11"/><rect x="122" y="5" width="1" height="1" rx="0" fill="#92a9a0" opacity="0.11"/><rect x="114" y="120" width="2" height="1" rx="0" fill="#92a9a0" opacity="0.11"/><rect x="79" y="40" width="4" height="1" rx="0" fill="#92a9a0" opacity="0.11"/><rect x="18" y="13" width="2" height="1" rx="0" fill="#92a9a0" opacity="0.11"/><rect x="23" y="62" width="2" height="1" rx="0" fill="#92a9a0" opacity="0.11"/><rect x="52" y="21" width="3" height="1" rx="0" fill="#92a9a0" opacity="0.11"/><rect x="117" y="67" width="6" height="1" rx="0" fill="#92a9a0" opacity="0.11"/><rect x="20" y="61" width="7" height="1" rx="0" fill="#92a9a0" opacity="0.11"/><rect x="46" y="80" width="6" height="1" rx="0" fill="#92a9a0" opacity="0.11"/><rect x="43" y="12" width="5" height="1" rx="0" fill="#92a9a0" opacity="0.11"/><rect x="116" y="38" width="2" height="1" rx="0" fill="#92a9a0" opacity="0.11"/><rect x="8" y="75" width="7" height="1" rx="0" fill="#92a9a0" opacity="0.11"/><rect x="94" y="65" width="2" height="1" rx="0" fill="#92a9a0" opacity="0.11"/><rect x="121" y="100" width="7" height="1" rx="0" fill="#92a9a0" opacity="0.11"/><rect x="5" y="66" width="4" height="1" rx="0" fill="#92a9a0" opacity="0.11"/><rect x="67" y="97" width="2" height="1" rx="0" fill="#92a9a0" opacity="0.11"/><rect x="3" y="50" width="2" height="1" rx="0" fill="#92a9a0" opacity="0.11"/><rect x="27" y="83" width="4" height="1" rx="0" fill="#92a9a0" opacity="0.11"/><rect x="26" y="92" width="6" height="1" rx="0" fill="#92a9a0" opacity="0.11"/><rect x="3" y="51" width="7" height="1" rx="0" fill="#92a9a0" opacity="0.11"/><rect x="33" y="107" width="1" height="1" rx="0" fill="#92a9a0" opacity="0.11"/><rect x="55" y="47" width="4" height="1" rx="0" fill="#92a9a0" opacity="0.11"/><rect x="40" y="68" width="5" height="1" rx="0" fill="#92a9a0" opacity="0.11"/><rect x="107" y="115" width="2" height="1" rx="0" fill="#92a9a0" opacity="0.11"/><rect x="33" y="121" width="4" height="1" rx="0" fill="#92a9a0" opacity="0.11"/><rect x="112" y="49" width="6" height="1" rx="0" fill="#92a9a0" opacity="0.11"/><rect x="83" y="28" width="2" height="1" rx="0" fill="#92a9a0" opacity="0.11"/><rect x="14" y="81" width="1" height="1" rx="0" fill="#92a9a0" opacity="0.11"/><rect x="48" y="74" width="3" height="1" rx="0" fill="#92a9a0" opacity="0.11"/><path d="M0 0L128 0L128 16L112 18L88 13L65 18L44 13L23 16L0 11Z" fill="#98a08b" stroke="none" stroke-width="1" stroke-linejoin="round" stroke-linecap="round" /><rect x="0" y="0" width="128" height="5" rx="0" fill="#d7c8a1" /><path d="M0 6L24 8L31 5L54 9L76 5L89 10L114 7L128 10" fill="none" stroke="#697f77" stroke-width="2" stroke-linejoin="round" stroke-linecap="round" /><path d="M4 17L8 31L12 15M48 18L51 27L57 18M94 18L97 29L102 17" fill="none" stroke="#445f60" stroke-width="3" stroke-linejoin="round" stroke-linecap="round" /></svg>
