<svg xmlns="http://www.w3.org/2000/svg" width="128" height="128" viewBox="0 0 128 128"><defs>
  <linearGradient id="coat" x1="0" y1="0" x2="1" y2="1"><stop stop-color="#81a19a"/><stop offset=".5" stop-color="#3c6b70"/><stop offset="1" stop-color="#284652"/></linearGradient>
  <linearGradient id="metal" x1="0" y1="0" x2="0" y2="1"><stop stop-color="#e7c98e"/><stop offset=".3" stop-color="#d3a763"/><stop offset="1" stop-color="#82603b"/></linearGradient>
  <linearGradient id="rock" x1="0" y1="0" x2=".5" y2="1"><stop stop-color="#385968"/><stop offset=".42" stop-color="#253e4b"/><stop offset="1" stop-color="#142936"/></linearGradient>
  <linearGradient id="lava" x1="0" y1="0" x2="0" y2="1"><stop stop-color="#fff0ae"/><stop offset=".13" stop-color="#ffb34e"/><stop offset=".35" stop-color="#e76448"/><stop offset="1" stop-color="#6b2530"/></linearGradient>
  <radialGradient id="glow"><stop stop-color="#e2fff0" stop-opacity=".85"/><stop offset=".25" stop-color="#a5f3e0" stop-opacity=".38"/><stop offset="1" stop-color="#a5f3e0" stop-opacity="0"/></radialGradient>
  <radialGradient id="ember"><stop stop-color="#fff4bc" stop-opacity=".9"/><stop offset=".2" stop-color="#ffb553" stop-opacity=".5"/><stop offset="1" stop-color="#e76448" stop-opacity="0"/></radialGradient>
</defs><rect x="0" y="0" width="128" height="128" rx="0" fill="url(#lava)" /><path d="M0 10Q16 0 32 10T64 10T96 10T128 10" fill="none" stroke="#fff0b0" stroke-width="5" stroke-linejoin="round" stroke-linecap="round" /><path d="M-3 55L27 41L48 55L72 36L103 54L133 39L135 66L95 78L70 63L38 81L0 71Z" fill="#962f32" stroke="none" stroke-width="1" stroke-linejoin="round" stroke-linecap="round" /><path d="M0 94L29 85L41 97L70 80L88 100L128 85L128 128L0 128Z" fill="#522d37" stroke="none" stroke-width="1" stroke-linejoin="round" stroke-linecap="round" /><path d="M10 53L26 47L34 51M55 49L72 41L85 50M89 92L111 87" fill="none" stroke="#ffcb71" stroke-width="3" stroke-linejoin="round" stroke-linecap="round" /><circle cx="24" cy="23" r="3" fill="#fff2b6" /><ellipse cx="91" cy="29" rx="6" ry="2" fill="#fff2b6" /></svg>
