{
  "asset": {
    "version": "2.0",
    "generator": "Aegis Server Vault original procedural kit v1",
    "copyright": "2026 Aegis contributors. MIT. See LICENSE.txt."
  },
  "scene": 0,
  "scenes": [
    {
      "name": "Access control pedestal",
      "nodes": [
        0
      ]
    }
  ],
  "nodes": [
    {
      "name": "root",
      "children": [
        1,
        2
      ]
    },
    {
      "name": "console",
      "translation": [
        0,
        0,
        0
      ],
      "mesh": 0
    },
    {
      "name": "screen",
      "translation": [
        0,
        0.48,
        -0.025
      ],
      "rotation": [
        0.21822962308086932,
        0,
        0,
        0.9758974493306055
      ],
      "mesh": 1,
      "children": [
        3,
        4
      ]
    },
    {
      "name": "screen-locked",
      "translation": [
        0,
        0,
        0
      ],
      "mesh": 2
    },
    {
      "name": "screen-active",
      "translation": [
        0,
        0,
        0
      ],
      "scale": [
        0,
        0,
        0
      ],
      "mesh": 3
    }
  ],
  "meshes": [
    {
      "name": "console",
      "primitives": [
        {
          "attributes": {
            "POSITION": 0,
            "NORMAL": 1,
            "COLOR_0": 2,
            "TEXCOORD_0": 3
          },
          "indices": 4,
          "material": 0
        },
        {
          "attributes": {
            "POSITION": 5,
            "NORMAL": 6,
            "COLOR_0": 7,
            "TEXCOORD_0": 8
          },
          "indices": 9,
          "material": 3
        }
      ]
    },
    {
      "name": "screen",
      "primitives": [
        {
          "attributes": {
            "POSITION": 10,
            "NORMAL": 11,
            "COLOR_0": 12,
            "TEXCOORD_0": 13
          },
          "indices": 14,
          "material": 0
        }
      ]
    },
    {
      "name": "screen-locked",
      "primitives": [
        {
          "attributes": {
            "POSITION": 15,
            "NORMAL": 16,
            "COLOR_0": 17,
            "TEXCOORD_0": 18
          },
          "indices": 19,
          "material": 1
        }
      ]
    },
    {
      "name": "screen-active",
      "primitives": [
        {
          "attributes": {
            "POSITION": 20,
            "NORMAL": 21,
            "COLOR_0": 22,
            "TEXCOORD_0": 23
          },
          "indices": 24,
          "material": 2
        }
      ]
    }
  ],
  "materials": [
    {
      "name": "Ceramic and anodized alloy",
      "pbrMetallicRoughness": {
        "baseColorFactor": [
          1,
          1,
          1,
          1
        ],
        "metallicFactor": 0.42,
        "roughnessFactor": 0.56
      }
    },
    {
      "name": "Locked access screen",
      "pbrMetallicRoughness": {
        "baseColorTexture": {
          "index": 0
        },
        "metallicFactor": 0.25,
        "roughnessFactor": 0.62
      },
      "emissiveTexture": {
        "index": 1
      },
      "emissiveFactor": [
        0.8,
        0.8,
        0.8
      ]
    },
    {
      "name": "Active access screen",
      "pbrMetallicRoughness": {
        "baseColorTexture": {
          "index": 2
        },
        "metallicFactor": 0.25,
        "roughnessFactor": 0.62
      },
      "emissiveTexture": {
        "index": 3
      },
      "emissiveFactor": [
        0.8,
        0.8,
        0.8
      ]
    },
    {
      "name": "Console status",
      "pbrMetallicRoughness": {
        "baseColorFactor": [
          1,
          0.5711248294648731,
          0.184474994500441,
          1
        ],
        "metallicFactor": 0.05,
        "roughnessFactor": 0.35
      },
      "emissiveFactor": [
        1,
        0.5711248294648731,
        0.184474994500441
      ]
    }
  ],
  "accessors": [
    {
      "bufferView": 0,
      "componentType": 5126,
      "count": 224,
      "type": "VEC3",
      "min": [
        -0.24500000476837158,
        0,
        -0.18000000715255737
      ],
      "max": [
        0.24500000476837158,
        0.4300000071525574,
        0.18000000715255737
      ]
    },
    {
      "bufferView": 1,
      "componentType": 5126,
      "count": 224,
      "type": "VEC3",
      "min": [
        -1,
        -1,
        -1
      ],
      "max": [
        1,
        1,
        1
      ]
    },
    {
      "bufferView": 2,
      "componentType": 5126,
      "count": 224,
      "type": "VEC3",
      "min": [
        0.006995410192757845,
        0.016807375475764275,
        0.03310476616024971
      ],
      "max": [
        0.08437620848417282,
        0.15592646598815918,
        0.20507873594760895
      ]
    },
    {
      "bufferView": 3,
      "componentType": 5126,
      "count": 224,
      "type": "VEC2"
    },
    {
      "bufferView": 4,
      "componentType": 5123,
      "count": 360,
      "type": "SCALAR"
    },
    {
      "bufferView": 5,
      "componentType": 5126,
      "count": 24,
      "type": "VEC3",
      "min": [
        -0.02250000089406967,
        0.13500000536441803,
        0.024000000208616257
      ],
      "max": [
        0.02250000089406967,
        0.35499998927116394,
        0.03799999877810478
      ]
    },
    {
      "bufferView": 6,
      "componentType": 5126,
      "count": 24,
      "type": "VEC3",
      "min": [
        -1,
        -1,
        -1
      ],
      "max": [
        1,
        1,
        1
      ]
    },
    {
      "bufferView": 7,
      "componentType": 5126,
      "count": 24,
      "type": "VEC3",
      "min": [
        1,
        1,
        1
      ],
      "max": [
        1,
        1,
        1
      ]
    },
    {
      "bufferView": 8,
      "componentType": 5126,
      "count": 24,
      "type": "VEC2"
    },
    {
      "bufferView": 9,
      "componentType": 5123,
      "count": 36,
      "type": "SCALAR"
    },
    {
      "bufferView": 10,
      "componentType": 5126,
      "count": 112,
      "type": "VEC3",
      "min": [
        -0.25999999046325684,
        -0.05249999836087227,
        -0.18000000715255737
      ],
      "max": [
        0.25999999046325684,
        0.05249999836087227,
        0.18000000715255737
      ]
    },
    {
      "bufferView": 11,
      "componentType": 5126,
      "count": 112,
      "type": "VEC3",
      "min": [
        -1,
        -1,
        -1
      ],
      "max": [
        1,
        1,
        1
      ]
    },
    {
      "bufferView": 12,
      "componentType": 5126,
      "count": 112,
      "type": "VEC3",
      "min": [
        0.006995410192757845,
        0.016807375475764275,
        0.03310476616024971
      ],
      "max": [
        0.006995410192757845,
        0.016807375475764275,
        0.03310476616024971
      ]
    },
    {
      "bufferView": 13,
      "componentType": 5126,
      "count": 112,
      "type": "VEC2"
    },
    {
      "bufferView": 14,
      "componentType": 5123,
      "count": 180,
      "type": "SCALAR"
    },
    {
      "bufferView": 15,
      "componentType": 5126,
      "count": 4,
      "type": "VEC3",
      "min": [
        -0.22599999606609344,
        0.054999999701976776,
        -0.14000000059604645
      ],
      "max": [
        0.22599999606609344,
        0.054999999701976776,
        0.14000000059604645
      ]
    },
    {
      "bufferView": 16,
      "componentType": 5126,
      "count": 4,
      "type": "VEC3",
      "min": [
        0,
        1,
        0
      ],
      "max": [
        0,
        1,
        0
      ]
    },
    {
      "bufferView": 17,
      "componentType": 5126,
      "count": 4,
      "type": "VEC3",
      "min": [
        1,
        1,
        1
      ],
      "max": [
        1,
        1,
        1
      ]
    },
    {
      "bufferView": 18,
      "componentType": 5126,
      "count": 4,
      "type": "VEC2"
    },
    {
      "bufferView": 19,
      "componentType": 5123,
      "count": 6,
      "type": "SCALAR"
    },
    {
      "bufferView": 20,
      "componentType": 5126,
      "count": 4,
      "type": "VEC3",
      "min": [
        -0.22599999606609344,
        0.054999999701976776,
        -0.14000000059604645
      ],
      "max": [
        0.22599999606609344,
        0.054999999701976776,
        0.14000000059604645
      ]
    },
    {
      "bufferView": 21,
      "componentType": 5126,
      "count": 4,
      "type": "VEC3",
      "min": [
        0,
        1,
        0
      ],
      "max": [
        0,
        1,
        0
      ]
    },
    {
      "bufferView": 22,
      "componentType": 5126,
      "count": 4,
      "type": "VEC3",
      "min": [
        1,
        1,
        1
      ],
      "max": [
        1,
        1,
        1
      ]
    },
    {
      "bufferView": 23,
      "componentType": 5126,
      "count": 4,
      "type": "VEC2"
    },
    {
      "bufferView": 24,
      "componentType": 5123,
      "count": 6,
      "type": "SCALAR"
    },
    {
      "bufferView": 25,
      "componentType": 5126,
      "count": 3,
      "type": "SCALAR",
      "min": [
        0
      ],
      "max": [
        0.4000000059604645
      ]
    },
    {
      "bufferView": 26,
      "componentType": 5126,
      "count": 3,
      "type": "VEC3",
      "min": [
        0,
        0,
        0
      ],
      "max": [
        1,
        1,
        1
      ]
    },
    {
      "bufferView": 27,
      "componentType": 5126,
      "count": 3,
      "type": "SCALAR",
      "min": [
        0
      ],
      "max": [
        0.4000000059604645
      ]
    },
    {
      "bufferView": 28,
      "componentType": 5126,
      "count": 3,
      "type": "VEC3",
      "min": [
        0,
        0,
        0
      ],
      "max": [
        1,
        1,
        1
      ]
    }
  ],
  "bufferViews": [
    {
      "buffer": 0,
      "byteOffset": 0,
      "byteLength": 2688,
      "target": 34962
    },
    {
      "buffer": 0,
      "byteOffset": 2688,
      "byteLength": 2688,
      "target": 34962
    },
    {
      "buffer": 0,
      "byteOffset": 5376,
      "byteLength": 2688,
      "target": 34962
    },
    {
      "buffer": 0,
      "byteOffset": 8064,
      "byteLength": 1792,
      "target": 34962
    },
    {
      "buffer": 0,
      "byteOffset": 9856,
      "byteLength": 720,
      "target": 34963
    },
    {
      "buffer": 0,
      "byteOffset": 10576,
      "byteLength": 288,
      "target": 34962
    },
    {
      "buffer": 0,
      "byteOffset": 10864,
      "byteLength": 288,
      "target": 34962
    },
    {
      "buffer": 0,
      "byteOffset": 11152,
      "byteLength": 288,
      "target": 34962
    },
    {
      "buffer": 0,
      "byteOffset": 11440,
      "byteLength": 192,
      "target": 34962
    },
    {
      "buffer": 0,
      "byteOffset": 11632,
      "byteLength": 72,
      "target": 34963
    },
    {
      "buffer": 0,
      "byteOffset": 11704,
      "byteLength": 1344,
      "target": 34962
    },
    {
      "buffer": 0,
      "byteOffset": 13048,
      "byteLength": 1344,
      "target": 34962
    },
    {
      "buffer": 0,
      "byteOffset": 14392,
      "byteLength": 1344,
      "target": 34962
    },
    {
      "buffer": 0,
      "byteOffset": 15736,
      "byteLength": 896,
      "target": 34962
    },
    {
      "buffer": 0,
      "byteOffset": 16632,
      "byteLength": 360,
      "target": 34963
    },
    {
      "buffer": 0,
      "byteOffset": 16992,
      "byteLength": 48,
      "target": 34962
    },
    {
      "buffer": 0,
      "byteOffset": 17040,
      "byteLength": 48,
      "target": 34962
    },
    {
      "buffer": 0,
      "byteOffset": 17088,
      "byteLength": 48,
      "target": 34962
    },
    {
      "buffer": 0,
      "byteOffset": 17136,
      "byteLength": 32,
      "target": 34962
    },
    {
      "buffer": 0,
      "byteOffset": 17168,
      "byteLength": 12,
      "target": 34963
    },
    {
      "buffer": 0,
      "byteOffset": 17180,
      "byteLength": 48,
      "target": 34962
    },
    {
      "buffer": 0,
      "byteOffset": 17228,
      "byteLength": 48,
      "target": 34962
    },
    {
      "buffer": 0,
      "byteOffset": 17276,
      "byteLength": 48,
      "target": 34962
    },
    {
      "buffer": 0,
      "byteOffset": 17324,
      "byteLength": 32,
      "target": 34962
    },
    {
      "buffer": 0,
      "byteOffset": 17356,
      "byteLength": 12,
      "target": 34963
    },
    {
      "buffer": 0,
      "byteOffset": 17368,
      "byteLength": 12
    },
    {
      "buffer": 0,
      "byteOffset": 17380,
      "byteLength": 36
    },
    {
      "buffer": 0,
      "byteOffset": 17416,
      "byteLength": 12
    },
    {
      "buffer": 0,
      "byteOffset": 17428,
      "byteLength": 36
    }
  ],
  "buffers": [
    {
      "byteLength": 17464,
      "uri": "data:application/octet-stream;base64,"
    }
  ],
  "extras": {
    "units": "One unit is one navigation cell. +Y up; actors face +Z; origin at feet.",
    "triangles": 196,
    "primitives": 5,
    "source": "source/generate.mjs"
  },
  "animations": [
    {
      "name": "activate",
      "samplers": [
        {
          "input": 25,
          "output": 26,
          "interpolation": "STEP"
        },
        {
          "input": 27,
          "output": 28,
          "interpolation": "STEP"
        }
      ],
      "channels": [
        {
          "sampler": 0,
          "target": {
            "node": 3,
            "path": "scale"
          }
        },
        {
          "sampler": 1,
          "target": {
            "node": 4,
            "path": "scale"
          }
        }
      ]
    }
  ],
  "images": [
    {
      "uri": "terminal-locked.png"
    },
    {
      "uri": "terminal-locked.png"
    },
    {
      "uri": "terminal-active.png"
    },
    {
      "uri": "terminal-active.png"
    }
  ],
  "textures": [
    {
      "source": 0,
      "sampler": 0
    },
    {
      "source": 1,
      "sampler": 0
    },
    {
      "source": 2,
      "sampler": 0
    },
    {
      "source": 3,
      "sampler": 0
    }
  ],
  "samplers": [
    {
      "magFilter": 9729,
      "minFilter": 9987,
      "wrapS": 10497,
      "wrapT": 10497
    }
  ]
}
