{
  "asset": {
    "version": "2.0",
    "generator": "Aegis Server Vault original procedural kit v1",
    "copyright": "2026 Aegis contributors. MIT. See LICENSE.txt."
  },
  "scene": 0,
  "scenes": [
    {
      "name": "Data extraction uplink",
      "nodes": [
        0
      ]
    }
  ],
  "nodes": [
    {
      "name": "root",
      "children": [
        1
      ]
    },
    {
      "name": "pad",
      "translation": [
        0,
        0,
        0
      ],
      "mesh": 0
    }
  ],
  "meshes": [
    {
      "name": "pad",
      "primitives": [
        {
          "attributes": {
            "POSITION": 0,
            "NORMAL": 1,
            "COLOR_0": 2,
            "TEXCOORD_0": 3
          },
          "indices": 4,
          "material": 0
        },
        {
          "attributes": {
            "POSITION": 5,
            "NORMAL": 6,
            "COLOR_0": 7,
            "TEXCOORD_0": 8
          },
          "indices": 9,
          "material": 1
        }
      ]
    }
  ],
  "materials": [
    {
      "name": "Ceramic and anodized alloy",
      "pbrMetallicRoughness": {
        "baseColorFactor": [
          1,
          1,
          1,
          1
        ],
        "metallicFactor": 0.42,
        "roughnessFactor": 0.56
      }
    },
    {
      "name": "Uplink cyan",
      "pbrMetallicRoughness": {
        "baseColorFactor": [
          0.15292615199615017,
          0.7758222183174236,
          0.7379104087727308,
          1
        ],
        "metallicFactor": 0.05,
        "roughnessFactor": 0.35
      },
      "emissiveFactor": [
        0.15292615199615017,
        0.7758222183174236,
        0.7379104087727308
      ]
    }
  ],
  "accessors": [
    {
      "bufferView": 0,
      "componentType": 5126,
      "count": 848,
      "type": "VEC3",
      "min": [
        -0.4399999976158142,
        0,
        -0.4399999976158142
      ],
      "max": [
        0.4399999976158142,
        0.19499999284744263,
        0.4399999976158142
      ]
    },
    {
      "bufferView": 1,
      "componentType": 5126,
      "count": 848,
      "type": "VEC3",
      "min": [
        -1,
        -1,
        -1
      ],
      "max": [
        1,
        1,
        1
      ]
    },
    {
      "bufferView": 2,
      "componentType": 5126,
      "count": 848,
      "type": "VEC3",
      "min": [
        0.006995410192757845,
        0.016807375475764275,
        0.03310476616024971
      ],
      "max": [
        0.34191441535949707,
        0.4793201684951782,
        0.520995557308197
      ]
    },
    {
      "bufferView": 3,
      "componentType": 5126,
      "count": 848,
      "type": "VEC2"
    },
    {
      "bufferView": 4,
      "componentType": 5123,
      "count": 1368,
      "type": "SCALAR"
    },
    {
      "bufferView": 5,
      "componentType": 5126,
      "count": 480,
      "type": "VEC3",
      "min": [
        -0.33250001072883606,
        0.06949999928474426,
        -0.33250001072883606
      ],
      "max": [
        0.33250001072883606,
        0.2070000022649765,
        0.33250001072883606
      ]
    },
    {
      "bufferView": 6,
      "componentType": 5126,
      "count": 480,
      "type": "VEC3",
      "min": [
        -1,
        -1,
        -1
      ],
      "max": [
        1,
        1,
        1
      ]
    },
    {
      "bufferView": 7,
      "componentType": 5126,
      "count": 480,
      "type": "VEC3",
      "min": [
        1,
        1,
        1
      ],
      "max": [
        1,
        1,
        1
      ]
    },
    {
      "bufferView": 8,
      "componentType": 5126,
      "count": 480,
      "type": "VEC2"
    },
    {
      "bufferView": 9,
      "componentType": 5123,
      "count": 720,
      "type": "SCALAR"
    }
  ],
  "bufferViews": [
    {
      "buffer": 0,
      "byteOffset": 0,
      "byteLength": 10176,
      "target": 34962
    },
    {
      "buffer": 0,
      "byteOffset": 10176,
      "byteLength": 10176,
      "target": 34962
    },
    {
      "buffer": 0,
      "byteOffset": 20352,
      "byteLength": 10176,
      "target": 34962
    },
    {
      "buffer": 0,
      "byteOffset": 30528,
      "byteLength": 6784,
      "target": 34962
    },
    {
      "buffer": 0,
      "byteOffset": 37312,
      "byteLength": 2736,
      "target": 34963
    },
    {
      "buffer": 0,
      "byteOffset": 40048,
      "byteLength": 5760,
      "target": 34962
    },
    {
      "buffer": 0,
      "byteOffset": 45808,
      "byteLength": 5760,
      "target": 34962
    },
    {
      "buffer": 0,
      "byteOffset": 51568,
      "byteLength": 5760,
      "target": 34962
    },
    {
      "buffer": 0,
      "byteOffset": 57328,
      "byteLength": 3840,
      "target": 34962
    },
    {
      "buffer": 0,
      "byteOffset": 61168,
      "byteLength": 1440,
      "target": 34963
    }
  ],
  "buffers": [
    {
      "byteLength": 62608,
      "uri": "data:application/octet-stream;base64,"
    }
  ],
  "extras": {
    "units": "One unit is one navigation cell. +Y up; actors face +Z; origin at feet.",
    "triangles": 696,
    "primitives": 2,
    "source": "source/generate.mjs"
  }
}
