{
  "asset": {
    "version": "2.0",
    "generator": "Aegis Server Vault original procedural kit v1",
    "copyright": "2026 Aegis contributors. MIT. See LICENSE.txt."
  },
  "scene": 0,
  "scenes": [
    {
      "name": "Lancer vault operative",
      "nodes": [
        0
      ]
    }
  ],
  "nodes": [
    {
      "name": "root",
      "children": [
        1,
        2,
        3,
        4,
        5,
        6
      ]
    },
    {
      "name": "torso",
      "translation": [
        0,
        0.68,
        0
      ],
      "mesh": 0
    },
    {
      "name": "head",
      "translation": [
        0,
        0.97,
        0
      ],
      "mesh": 1
    },
    {
      "name": "arm-left",
      "translation": [
        -0.25,
        0.87,
        0
      ],
      "mesh": 2
    },
    {
      "name": "leg-left",
      "translation": [
        -0.115,
        0.54,
        0
      ],
      "mesh": 3
    },
    {
      "name": "arm-right",
      "translation": [
        0.25,
        0.87,
        0
      ],
      "mesh": 4,
      "children": [
        7
      ]
    },
    {
      "name": "leg-right",
      "translation": [
        0.115,
        0.54,
        0
      ],
      "mesh": 5
    },
    {
      "name": "weapon",
      "translation": [
        0,
        -0.255,
        0.12
      ],
      "mesh": 6
    }
  ],
  "meshes": [
    {
      "name": "torso",
      "primitives": [
        {
          "attributes": {
            "POSITION": 0,
            "NORMAL": 1,
            "COLOR_0": 2,
            "TEXCOORD_0": 3
          },
          "indices": 4,
          "material": 0
        },
        {
          "attributes": {
            "POSITION": 5,
            "NORMAL": 6,
            "COLOR_0": 7,
            "TEXCOORD_0": 8
          },
          "indices": 9,
          "material": 1
        }
      ]
    },
    {
      "name": "head",
      "primitives": [
        {
          "attributes": {
            "POSITION": 10,
            "NORMAL": 11,
            "COLOR_0": 12,
            "TEXCOORD_0": 13
          },
          "indices": 14,
          "material": 0
        },
        {
          "attributes": {
            "POSITION": 15,
            "NORMAL": 16,
            "COLOR_0": 17,
            "TEXCOORD_0": 18
          },
          "indices": 19,
          "material": 1
        }
      ]
    },
    {
      "name": "arm-left",
      "primitives": [
        {
          "attributes": {
            "POSITION": 20,
            "NORMAL": 21,
            "COLOR_0": 22,
            "TEXCOORD_0": 23
          },
          "indices": 24,
          "material": 0
        },
        {
          "attributes": {
            "POSITION": 25,
            "NORMAL": 26,
            "COLOR_0": 27,
            "TEXCOORD_0": 28
          },
          "indices": 29,
          "material": 1
        }
      ]
    },
    {
      "name": "leg-left",
      "primitives": [
        {
          "attributes": {
            "POSITION": 30,
            "NORMAL": 31,
            "COLOR_0": 32,
            "TEXCOORD_0": 33
          },
          "indices": 34,
          "material": 0
        }
      ]
    },
    {
      "name": "arm-right",
      "primitives": [
        {
          "attributes": {
            "POSITION": 35,
            "NORMAL": 36,
            "COLOR_0": 37,
            "TEXCOORD_0": 38
          },
          "indices": 39,
          "material": 0
        },
        {
          "attributes": {
            "POSITION": 40,
            "NORMAL": 41,
            "COLOR_0": 42,
            "TEXCOORD_0": 43
          },
          "indices": 44,
          "material": 1
        }
      ]
    },
    {
      "name": "leg-right",
      "primitives": [
        {
          "attributes": {
            "POSITION": 45,
            "NORMAL": 46,
            "COLOR_0": 47,
            "TEXCOORD_0": 48
          },
          "indices": 49,
          "material": 0
        }
      ]
    },
    {
      "name": "weapon",
      "primitives": [
        {
          "attributes": {
            "POSITION": 50,
            "NORMAL": 51,
            "COLOR_0": 52,
            "TEXCOORD_0": 53
          },
          "indices": 54,
          "material": 0
        },
        {
          "attributes": {
            "POSITION": 55,
            "NORMAL": 56,
            "COLOR_0": 57,
            "TEXCOORD_0": 58
          },
          "indices": 59,
          "material": 1
        }
      ]
    }
  ],
  "materials": [
    {
      "name": "Ceramic and anodized alloy",
      "pbrMetallicRoughness": {
        "baseColorFactor": [
          1,
          1,
          1,
          1
        ],
        "metallicFactor": 0.42,
        "roughnessFactor": 0.56
      }
    },
    {
      "name": "Cyan visor and telemetry",
      "pbrMetallicRoughness": {
        "baseColorFactor": [
          0.16826940018969075,
          0.8549926081242338,
          0.799102738014409,
          1
        ],
        "metallicFactor": 0.05,
        "roughnessFactor": 0.35
      },
      "emissiveFactor": [
        0.16826940018969075,
        0.8549926081242338,
        0.799102738014409
      ]
    }
  ],
  "accessors": [
    {
      "bufferView": 0,
      "componentType": 5126,
      "count": 608,
      "type": "VEC3",
      "min": [
        -0.24500000476837158,
        -0.16500000655651093,
        -0.22499999403953552
      ],
      "max": [
        0.17499999701976776,
        0.28999999165534973,
        0.1599999964237213
      ]
    },
    {
      "bufferView": 1,
      "componentType": 5126,
      "count": 608,
      "type": "VEC3",
      "min": [
        -1,
        -1,
        -1
      ],
      "max": [
        1,
        1,
        1
      ]
    },
    {
      "bufferView": 2,
      "componentType": 5126,
      "count": 608,
      "type": "VEC3",
      "min": [
        0.006995410192757845,
        0.016807375475764275,
        0.03310476616024971
      ],
      "max": [
        0.637596845626831,
        0.715693473815918,
        0.7083757519721985
      ]
    },
    {
      "bufferView": 3,
      "componentType": 5126,
      "count": 608,
      "type": "VEC2"
    },
    {
      "bufferView": 4,
      "componentType": 5123,
      "count": 972,
      "type": "SCALAR"
    },
    {
      "bufferView": 5,
      "componentType": 5126,
      "count": 72,
      "type": "VEC3",
      "min": [
        -0.08749999850988388,
        0.09000000357627869,
        -0.2370000034570694
      ],
      "max": [
        0.08749999850988388,
        0.2549999952316284,
        0.16449999809265137
      ]
    },
    {
      "bufferView": 6,
      "componentType": 5126,
      "count": 72,
      "type": "VEC3",
      "min": [
        -1,
        -1,
        -1
      ],
      "max": [
        1,
        1,
        1
      ]
    },
    {
      "bufferView": 7,
      "componentType": 5126,
      "count": 72,
      "type": "VEC3",
      "min": [
        1,
        1,
        1
      ],
      "max": [
        1,
        1,
        1
      ]
    },
    {
      "bufferView": 8,
      "componentType": 5126,
      "count": 72,
      "type": "VEC2"
    },
    {
      "bufferView": 9,
      "componentType": 5123,
      "count": 108,
      "type": "SCALAR"
    },
    {
      "bufferView": 10,
      "componentType": 5126,
      "count": 408,
      "type": "VEC3",
      "min": [
        -0.12250000238418579,
        -0.03750000149011612,
        -0.12250000238418579
      ],
      "max": [
        0.14399999380111694,
        0.2224999964237213,
        0.15000000596046448
      ]
    },
    {
      "bufferView": 11,
      "componentType": 5126,
      "count": 408,
      "type": "VEC3",
      "min": [
        -1,
        -1,
        -1
      ],
      "max": [
        1,
        1,
        1
      ]
    },
    {
      "bufferView": 12,
      "componentType": 5126,
      "count": 408,
      "type": "VEC3",
      "min": [
        0.0030352699104696512,
        0.006995410192757845,
        0.012983032502233982
      ],
      "max": [
        0.637596845626831,
        0.715693473815918,
        0.7083757519721985
      ]
    },
    {
      "bufferView": 13,
      "componentType": 5126,
      "count": 408,
      "type": "VEC2"
    },
    {
      "bufferView": 14,
      "componentType": 5123,
      "count": 660,
      "type": "SCALAR"
    },
    {
      "bufferView": 15,
      "componentType": 5126,
      "count": 24,
      "type": "VEC3",
      "min": [
        -0.10000000149011612,
        0.10700000077486038,
        0.14499999582767487
      ],
      "max": [
        0.10000000149011612,
        0.13300000131130219,
        0.15700000524520874
      ]
    },
    {
      "bufferView": 16,
      "componentType": 5126,
      "count": 24,
      "type": "VEC3",
      "min": [
        -1,
        -1,
        -1
      ],
      "max": [
        1,
        1,
        1
      ]
    },
    {
      "bufferView": 17,
      "componentType": 5126,
      "count": 24,
      "type": "VEC3",
      "min": [
        1,
        1,
        1
      ],
      "max": [
        1,
        1,
        1
      ]
    },
    {
      "bufferView": 18,
      "componentType": 5126,
      "count": 24,
      "type": "VEC2"
    },
    {
      "bufferView": 19,
      "componentType": 5123,
      "count": 36,
      "type": "SCALAR"
    },
    {
      "bufferView": 20,
      "componentType": 5126,
      "count": 336,
      "type": "VEC3",
      "min": [
        -0.06499999761581421,
        -0.3499999940395355,
        -0.10999999940395355
      ],
      "max": [
        0.06499999761581421,
        0.07000000029802322,
        0.1274999976158142
      ]
    },
    {
      "bufferView": 21,
      "componentType": 5126,
      "count": 336,
      "type": "VEC3",
      "min": [
        -1,
        -1,
        -1
      ],
      "max": [
        1,
        1,
        1
      ]
    },
    {
      "bufferView": 22,
      "componentType": 5126,
      "count": 336,
      "type": "VEC3",
      "min": [
        0.006995410192757845,
        0.016807375475764275,
        0.03310476616024971
      ],
      "max": [
        0.08437620848417282,
        0.15592646598815918,
        0.20507873594760895
      ]
    },
    {
      "bufferView": 23,
      "componentType": 5126,
      "count": 336,
      "type": "VEC2"
    },
    {
      "bufferView": 24,
      "componentType": 5123,
      "count": 540,
      "type": "SCALAR"
    },
    {
      "bufferView": 25,
      "componentType": 5126,
      "count": 24,
      "type": "VEC3",
      "min": [
        -0.07750000059604645,
        0.017000000923871994,
        0.0625
      ],
      "max": [
        -0.012500000186264515,
        0.03700000047683716,
        0.08749999850988388
      ]
    },
    {
      "bufferView": 26,
      "componentType": 5126,
      "count": 24,
      "type": "VEC3",
      "min": [
        -1,
        -1,
        -1
      ],
      "max": [
        1,
        1,
        1
      ]
    },
    {
      "bufferView": 27,
      "componentType": 5126,
      "count": 24,
      "type": "VEC3",
      "min": [
        1,
        1,
        1
      ],
      "max": [
        1,
        1,
        1
      ]
    },
    {
      "bufferView": 28,
      "componentType": 5126,
      "count": 24,
      "type": "VEC2"
    },
    {
      "bufferView": 29,
      "componentType": 5123,
      "count": 36,
      "type": "SCALAR"
    },
    {
      "bufferView": 30,
      "componentType": 5126,
      "count": 472,
      "type": "VEC3",
      "min": [
        -0.07999999821186066,
        -0.5379999876022339,
        -0.09000000357627869
      ],
      "max": [
        0.07999999821186066,
        0,
        0.18000000715255737
      ]
    },
    {
      "bufferView": 31,
      "componentType": 5126,
      "count": 472,
      "type": "VEC3",
      "min": [
        -1,
        -1,
        -1
      ],
      "max": [
        1,
        1,
        1
      ]
    },
    {
      "bufferView": 32,
      "componentType": 5126,
      "count": 472,
      "type": "VEC3",
      "min": [
        0.006995410192757845,
        0.016807375475764275,
        0.03310476616024971
      ],
      "max": [
        0.637596845626831,
        0.715693473815918,
        0.7083757519721985
      ]
    },
    {
      "bufferView": 33,
      "componentType": 5126,
      "count": 472,
      "type": "VEC2"
    },
    {
      "bufferView": 34,
      "componentType": 5123,
      "count": 756,
      "type": "SCALAR"
    },
    {
      "bufferView": 35,
      "componentType": 5126,
      "count": 336,
      "type": "VEC3",
      "min": [
        -0.06499999761581421,
        -0.3499999940395355,
        -0.10999999940395355
      ],
      "max": [
        0.06499999761581421,
        0.07000000029802322,
        0.1274999976158142
      ]
    },
    {
      "bufferView": 36,
      "componentType": 5126,
      "count": 336,
      "type": "VEC3",
      "min": [
        -1,
        -1,
        -1
      ],
      "max": [
        1,
        1,
        1
      ]
    },
    {
      "bufferView": 37,
      "componentType": 5126,
      "count": 336,
      "type": "VEC3",
      "min": [
        0.006995410192757845,
        0.016807375475764275,
        0.03310476616024971
      ],
      "max": [
        0.08437620848417282,
        0.15592646598815918,
        0.20507873594760895
      ]
    },
    {
      "bufferView": 38,
      "componentType": 5126,
      "count": 336,
      "type": "VEC2"
    },
    {
      "bufferView": 39,
      "componentType": 5123,
      "count": 540,
      "type": "SCALAR"
    },
    {
      "bufferView": 40,
      "componentType": 5126,
      "count": 24,
      "type": "VEC3",
      "min": [
        0.012500000186264515,
        0.017000000923871994,
        0.0625
      ],
      "max": [
        0.07750000059604645,
        0.03700000047683716,
        0.08749999850988388
      ]
    },
    {
      "bufferView": 41,
      "componentType": 5126,
      "count": 24,
      "type": "VEC3",
      "min": [
        -1,
        -1,
        -1
      ],
      "max": [
        1,
        1,
        1
      ]
    },
    {
      "bufferView": 42,
      "componentType": 5126,
      "count": 24,
      "type": "VEC3",
      "min": [
        1,
        1,
        1
      ],
      "max": [
        1,
        1,
        1
      ]
    },
    {
      "bufferView": 43,
      "componentType": 5126,
      "count": 24,
      "type": "VEC2"
    },
    {
      "bufferView": 44,
      "componentType": 5123,
      "count": 36,
      "type": "SCALAR"
    },
    {
      "bufferView": 45,
      "componentType": 5126,
      "count": 472,
      "type": "VEC3",
      "min": [
        -0.07999999821186066,
        -0.5379999876022339,
        -0.09000000357627869
      ],
      "max": [
        0.07999999821186066,
        0,
        0.18000000715255737
      ]
    },
    {
      "bufferView": 46,
      "componentType": 5126,
      "count": 472,
      "type": "VEC3",
      "min": [
        -1,
        -1,
        -1
      ],
      "max": [
        1,
        1,
        1
      ]
    },
    {
      "bufferView": 47,
      "componentType": 5126,
      "count": 472,
      "type": "VEC3",
      "min": [
        0.006995410192757845,
        0.016807375475764275,
        0.03310476616024971
      ],
      "max": [
        0.637596845626831,
        0.715693473815918,
        0.7083757519721985
      ]
    },
    {
      "bufferView": 48,
      "componentType": 5126,
      "count": 472,
      "type": "VEC2"
    },
    {
      "bufferView": 49,
      "componentType": 5123,
      "count": 756,
      "type": "SCALAR"
    },
    {
      "bufferView": 50,
      "componentType": 5126,
      "count": 160,
      "type": "VEC3",
      "min": [
        -0.04749999940395355,
        -0.02500000037252903,
        -0.07000000029802322
      ],
      "max": [
        0.04749999940395355,
        0.12800000607967377,
        0.3149999976158142
      ]
    },
    {
      "bufferView": 51,
      "componentType": 5126,
      "count": 160,
      "type": "VEC3",
      "min": [
        -1,
        -1,
        -1
      ],
      "max": [
        1,
        1,
        1
      ]
    },
    {
      "bufferView": 52,
      "componentType": 5126,
      "count": 160,
      "type": "VEC3",
      "min": [
        0.006995410192757845,
        0.016807375475764275,
        0.03310476616024971
      ],
      "max": [
        0.34191441535949707,
        0.4793201684951782,
        0.520995557308197
      ]
    },
    {
      "bufferView": 53,
      "componentType": 5126,
      "count": 160,
      "type": "VEC2"
    },
    {
      "bufferView": 54,
      "componentType": 5123,
      "count": 252,
      "type": "SCALAR"
    },
    {
      "bufferView": 55,
      "componentType": 5126,
      "count": 24,
      "type": "VEC3",
      "min": [
        -0.013000000268220901,
        0.017000000923871994,
        0.3140000104904175
      ],
      "max": [
        0.013000000268220901,
        0.0430000014603138,
        0.3179999887943268
      ]
    },
    {
      "bufferView": 56,
      "componentType": 5126,
      "count": 24,
      "type": "VEC3",
      "min": [
        -1,
        -1,
        -1
      ],
      "max": [
        1,
        1,
        1
      ]
    },
    {
      "bufferView": 57,
      "componentType": 5126,
      "count": 24,
      "type": "VEC3",
      "min": [
        1,
        1,
        1
      ],
      "max": [
        1,
        1,
        1
      ]
    },
    {
      "bufferView": 58,
      "componentType": 5126,
      "count": 24,
      "type": "VEC2"
    },
    {
      "bufferView": 59,
      "componentType": 5123,
      "count": 36,
      "type": "SCALAR"
    },
    {
      "bufferView": 60,
      "componentType": 5126,
      "count": 9,
      "type": "SCALAR",
      "min": [
        0
      ],
      "max": [
        2
      ]
    },
    {
      "bufferView": 61,
      "componentType": 5126,
      "count": 9,
      "type": "VEC4"
    },
    {
      "bufferView": 62,
      "componentType": 5126,
      "count": 9,
      "type": "SCALAR",
      "min": [
        0
      ],
      "max": [
        2
      ]
    },
    {
      "bufferView": 63,
      "componentType": 5126,
      "count": 9,
      "type": "VEC3",
      "min": [
        0,
        0.671999990940094,
        0
      ],
      "max": [
        0,
        0.6880000233650208,
        0
      ]
    },
    {
      "bufferView": 64,
      "componentType": 5126,
      "count": 9,
      "type": "SCALAR",
      "min": [
        0
      ],
      "max": [
        1
      ]
    },
    {
      "bufferView": 65,
      "componentType": 5126,
      "count": 9,
      "type": "VEC4"
    },
    {
      "bufferView": 66,
      "componentType": 5126,
      "count": 9,
      "type": "SCALAR",
      "min": [
        0
      ],
      "max": [
        1
      ]
    },
    {
      "bufferView": 67,
      "componentType": 5126,
      "count": 9,
      "type": "VEC4"
    },
    {
      "bufferView": 68,
      "componentType": 5126,
      "count": 9,
      "type": "SCALAR",
      "min": [
        0
      ],
      "max": [
        1
      ]
    },
    {
      "bufferView": 69,
      "componentType": 5126,
      "count": 9,
      "type": "VEC4"
    },
    {
      "bufferView": 70,
      "componentType": 5126,
      "count": 9,
      "type": "SCALAR",
      "min": [
        0
      ],
      "max": [
        1
      ]
    },
    {
      "bufferView": 71,
      "componentType": 5126,
      "count": 9,
      "type": "VEC4"
    },
    {
      "bufferView": 72,
      "componentType": 5126,
      "count": 9,
      "type": "SCALAR",
      "min": [
        0
      ],
      "max": [
        0.2800000011920929
      ]
    },
    {
      "bufferView": 73,
      "componentType": 5126,
      "count": 9,
      "type": "VEC4"
    },
    {
      "bufferView": 74,
      "componentType": 5126,
      "count": 9,
      "type": "SCALAR",
      "min": [
        0
      ],
      "max": [
        0.2800000011920929
      ]
    },
    {
      "bufferView": 75,
      "componentType": 5126,
      "count": 9,
      "type": "VEC4"
    },
    {
      "bufferView": 76,
      "componentType": 5126,
      "count": 61,
      "type": "SCALAR",
      "min": [
        0
      ],
      "max": [
        0.6000000238418579
      ]
    },
    {
      "bufferView": 77,
      "componentType": 5126,
      "count": 61,
      "type": "VEC4"
    },
    {
      "bufferView": 78,
      "componentType": 5126,
      "count": 61,
      "type": "SCALAR",
      "min": [
        0
      ],
      "max": [
        0.6000000238418579
      ]
    },
    {
      "bufferView": 79,
      "componentType": 5126,
      "count": 61,
      "type": "VEC3",
      "min": [
        0,
        0.0020000000949949026,
        0
      ],
      "max": [
        0.18000000715255737,
        0.2271891087293625,
        0
      ]
    }
  ],
  "bufferViews": [
    {
      "buffer": 0,
      "byteOffset": 0,
      "byteLength": 7296,
      "target": 34962
    },
    {
      "buffer": 0,
      "byteOffset": 7296,
      "byteLength": 7296,
      "target": 34962
    },
    {
      "buffer": 0,
      "byteOffset": 14592,
      "byteLength": 7296,
      "target": 34962
    },
    {
      "buffer": 0,
      "byteOffset": 21888,
      "byteLength": 4864,
      "target": 34962
    },
    {
      "buffer": 0,
      "byteOffset": 26752,
      "byteLength": 1944,
      "target": 34963
    },
    {
      "buffer": 0,
      "byteOffset": 28696,
      "byteLength": 864,
      "target": 34962
    },
    {
      "buffer": 0,
      "byteOffset": 29560,
      "byteLength": 864,
      "target": 34962
    },
    {
      "buffer": 0,
      "byteOffset": 30424,
      "byteLength": 864,
      "target": 34962
    },
    {
      "buffer": 0,
      "byteOffset": 31288,
      "byteLength": 576,
      "target": 34962
    },
    {
      "buffer": 0,
      "byteOffset": 31864,
      "byteLength": 216,
      "target": 34963
    },
    {
      "buffer": 0,
      "byteOffset": 32080,
      "byteLength": 4896,
      "target": 34962
    },
    {
      "buffer": 0,
      "byteOffset": 36976,
      "byteLength": 4896,
      "target": 34962
    },
    {
      "buffer": 0,
      "byteOffset": 41872,
      "byteLength": 4896,
      "target": 34962
    },
    {
      "buffer": 0,
      "byteOffset": 46768,
      "byteLength": 3264,
      "target": 34962
    },
    {
      "buffer": 0,
      "byteOffset": 50032,
      "byteLength": 1320,
      "target": 34963
    },
    {
      "buffer": 0,
      "byteOffset": 51352,
      "byteLength": 288,
      "target": 34962
    },
    {
      "buffer": 0,
      "byteOffset": 51640,
      "byteLength": 288,
      "target": 34962
    },
    {
      "buffer": 0,
      "byteOffset": 51928,
      "byteLength": 288,
      "target": 34962
    },
    {
      "buffer": 0,
      "byteOffset": 52216,
      "byteLength": 192,
      "target": 34962
    },
    {
      "buffer": 0,
      "byteOffset": 52408,
      "byteLength": 72,
      "target": 34963
    },
    {
      "buffer": 0,
      "byteOffset": 52480,
      "byteLength": 4032,
      "target": 34962
    },
    {
      "buffer": 0,
      "byteOffset": 56512,
      "byteLength": 4032,
      "target": 34962
    },
    {
      "buffer": 0,
      "byteOffset": 60544,
      "byteLength": 4032,
      "target": 34962
    },
    {
      "buffer": 0,
      "byteOffset": 64576,
      "byteLength": 2688,
      "target": 34962
    },
    {
      "buffer": 0,
      "byteOffset": 67264,
      "byteLength": 1080,
      "target": 34963
    },
    {
      "buffer": 0,
      "byteOffset": 68344,
      "byteLength": 288,
      "target": 34962
    },
    {
      "buffer": 0,
      "byteOffset": 68632,
      "byteLength": 288,
      "target": 34962
    },
    {
      "buffer": 0,
      "byteOffset": 68920,
      "byteLength": 288,
      "target": 34962
    },
    {
      "buffer": 0,
      "byteOffset": 69208,
      "byteLength": 192,
      "target": 34962
    },
    {
      "buffer": 0,
      "byteOffset": 69400,
      "byteLength": 72,
      "target": 34963
    },
    {
      "buffer": 0,
      "byteOffset": 69472,
      "byteLength": 5664,
      "target": 34962
    },
    {
      "buffer": 0,
      "byteOffset": 75136,
      "byteLength": 5664,
      "target": 34962
    },
    {
      "buffer": 0,
      "byteOffset": 80800,
      "byteLength": 5664,
      "target": 34962
    },
    {
      "buffer": 0,
      "byteOffset": 86464,
      "byteLength": 3776,
      "target": 34962
    },
    {
      "buffer": 0,
      "byteOffset": 90240,
      "byteLength": 1512,
      "target": 34963
    },
    {
      "buffer": 0,
      "byteOffset": 91752,
      "byteLength": 4032,
      "target": 34962
    },
    {
      "buffer": 0,
      "byteOffset": 95784,
      "byteLength": 4032,
      "target": 34962
    },
    {
      "buffer": 0,
      "byteOffset": 99816,
      "byteLength": 4032,
      "target": 34962
    },
    {
      "buffer": 0,
      "byteOffset": 103848,
      "byteLength": 2688,
      "target": 34962
    },
    {
      "buffer": 0,
      "byteOffset": 106536,
      "byteLength": 1080,
      "target": 34963
    },
    {
      "buffer": 0,
      "byteOffset": 107616,
      "byteLength": 288,
      "target": 34962
    },
    {
      "buffer": 0,
      "byteOffset": 107904,
      "byteLength": 288,
      "target": 34962
    },
    {
      "buffer": 0,
      "byteOffset": 108192,
      "byteLength": 288,
      "target": 34962
    },
    {
      "buffer": 0,
      "byteOffset": 108480,
      "byteLength": 192,
      "target": 34962
    },
    {
      "buffer": 0,
      "byteOffset": 108672,
      "byteLength": 72,
      "target": 34963
    },
    {
      "buffer": 0,
      "byteOffset": 108744,
      "byteLength": 5664,
      "target": 34962
    },
    {
      "buffer": 0,
      "byteOffset": 114408,
      "byteLength": 5664,
      "target": 34962
    },
    {
      "buffer": 0,
      "byteOffset": 120072,
      "byteLength": 5664,
      "target": 34962
    },
    {
      "buffer": 0,
      "byteOffset": 125736,
      "byteLength": 3776,
      "target": 34962
    },
    {
      "buffer": 0,
      "byteOffset": 129512,
      "byteLength": 1512,
      "target": 34963
    },
    {
      "buffer": 0,
      "byteOffset": 131024,
      "byteLength": 1920,
      "target": 34962
    },
    {
      "buffer": 0,
      "byteOffset": 132944,
      "byteLength": 1920,
      "target": 34962
    },
    {
      "buffer": 0,
      "byteOffset": 134864,
      "byteLength": 1920,
      "target": 34962
    },
    {
      "buffer": 0,
      "byteOffset": 136784,
      "byteLength": 1280,
      "target": 34962
    },
    {
      "buffer": 0,
      "byteOffset": 138064,
      "byteLength": 504,
      "target": 34963
    },
    {
      "buffer": 0,
      "byteOffset": 138568,
      "byteLength": 288,
      "target": 34962
    },
    {
      "buffer": 0,
      "byteOffset": 138856,
      "byteLength": 288,
      "target": 34962
    },
    {
      "buffer": 0,
      "byteOffset": 139144,
      "byteLength": 288,
      "target": 34962
    },
    {
      "buffer": 0,
      "byteOffset": 139432,
      "byteLength": 192,
      "target": 34962
    },
    {
      "buffer": 0,
      "byteOffset": 139624,
      "byteLength": 72,
      "target": 34963
    },
    {
      "buffer": 0,
      "byteOffset": 139696,
      "byteLength": 36
    },
    {
      "buffer": 0,
      "byteOffset": 139732,
      "byteLength": 144
    },
    {
      "buffer": 0,
      "byteOffset": 139876,
      "byteLength": 36
    },
    {
      "buffer": 0,
      "byteOffset": 139912,
      "byteLength": 108
    },
    {
      "buffer": 0,
      "byteOffset": 140020,
      "byteLength": 36
    },
    {
      "buffer": 0,
      "byteOffset": 140056,
      "byteLength": 144
    },
    {
      "buffer": 0,
      "byteOffset": 140200,
      "byteLength": 36
    },
    {
      "buffer": 0,
      "byteOffset": 140236,
      "byteLength": 144
    },
    {
      "buffer": 0,
      "byteOffset": 140380,
      "byteLength": 36
    },
    {
      "buffer": 0,
      "byteOffset": 140416,
      "byteLength": 144
    },
    {
      "buffer": 0,
      "byteOffset": 140560,
      "byteLength": 36
    },
    {
      "buffer": 0,
      "byteOffset": 140596,
      "byteLength": 144
    },
    {
      "buffer": 0,
      "byteOffset": 140740,
      "byteLength": 36
    },
    {
      "buffer": 0,
      "byteOffset": 140776,
      "byteLength": 144
    },
    {
      "buffer": 0,
      "byteOffset": 140920,
      "byteLength": 36
    },
    {
      "buffer": 0,
      "byteOffset": 140956,
      "byteLength": 144
    },
    {
      "buffer": 0,
      "byteOffset": 141100,
      "byteLength": 244
    },
    {
      "buffer": 0,
      "byteOffset": 141344,
      "byteLength": 976
    },
    {
      "buffer": 0,
      "byteOffset": 142320,
      "byteLength": 244
    },
    {
      "buffer": 0,
      "byteOffset": 142564,
      "byteLength": 732
    }
  ],
  "buffers": [
    {
      "byteLength": 143296,
      "uri": "data:application/octet-stream;base64,"
    }
  ],
  "extras": {
    "units": "One unit is one navigation cell. +Y up; actors face +Z; origin at feet.",
    "triangles": 1576,
    "primitives": 12,
    "source": "source/generate.mjs"
  },
  "animations": [
    {
      "name": "idle",
      "samplers": [
        {
          "input": 60,
          "output": 61,
          "interpolation": "LINEAR"
        },
        {
          "input": 62,
          "output": 63,
          "interpolation": "LINEAR"
        }
      ],
      "channels": [
        {
          "sampler": 0,
          "target": {
            "node": 2,
            "path": "rotation"
          }
        },
        {
          "sampler": 1,
          "target": {
            "node": 1,
            "path": "translation"
          }
        }
      ]
    },
    {
      "name": "walk",
      "samplers": [
        {
          "input": 64,
          "output": 65,
          "interpolation": "LINEAR"
        },
        {
          "input": 66,
          "output": 67,
          "interpolation": "LINEAR"
        },
        {
          "input": 68,
          "output": 69,
          "interpolation": "LINEAR"
        },
        {
          "input": 70,
          "output": 71,
          "interpolation": "LINEAR"
        }
      ],
      "channels": [
        {
          "sampler": 0,
          "target": {
            "node": 4,
            "path": "rotation"
          }
        },
        {
          "sampler": 1,
          "target": {
            "node": 6,
            "path": "rotation"
          }
        },
        {
          "sampler": 2,
          "target": {
            "node": 3,
            "path": "rotation"
          }
        },
        {
          "sampler": 3,
          "target": {
            "node": 5,
            "path": "rotation"
          }
        }
      ]
    },
    {
      "name": "attack",
      "samplers": [
        {
          "input": 72,
          "output": 73,
          "interpolation": "LINEAR"
        },
        {
          "input": 74,
          "output": 75,
          "interpolation": "LINEAR"
        }
      ],
      "channels": [
        {
          "sampler": 0,
          "target": {
            "node": 5,
            "path": "rotation"
          }
        },
        {
          "sampler": 1,
          "target": {
            "node": 1,
            "path": "rotation"
          }
        }
      ]
    },
    {
      "name": "death",
      "samplers": [
        {
          "input": 76,
          "output": 77,
          "interpolation": "LINEAR"
        },
        {
          "input": 78,
          "output": 79,
          "interpolation": "LINEAR"
        }
      ],
      "channels": [
        {
          "sampler": 0,
          "target": {
            "node": 0,
            "path": "rotation"
          }
        },
        {
          "sampler": 1,
          "target": {
            "node": 0,
            "path": "translation"
          }
        }
      ]
    }
  ]
}
