{
  "asset": {
    "version": "2.0",
    "generator": "Aegis Server Vault original procedural kit v1",
    "copyright": "2026 Aegis contributors. MIT. See LICENSE.txt."
  },
  "scene": 0,
  "scenes": [
    {
      "name": "Bastion security sentinel",
      "nodes": [
        0
      ]
    }
  ],
  "nodes": [
    {
      "name": "root",
      "children": [
        1,
        2,
        3,
        4,
        5,
        6
      ]
    },
    {
      "name": "torso",
      "translation": [
        0,
        0.68,
        0
      ],
      "mesh": 0
    },
    {
      "name": "head",
      "translation": [
        0,
        0.97,
        0
      ],
      "mesh": 1
    },
    {
      "name": "arm-left",
      "translation": [
        -0.31,
        0.87,
        0
      ],
      "mesh": 2
    },
    {
      "name": "leg-left",
      "translation": [
        -0.115,
        0.54,
        0
      ],
      "mesh": 3
    },
    {
      "name": "arm-right",
      "translation": [
        0.31,
        0.87,
        0
      ],
      "mesh": 4,
      "children": [
        7
      ]
    },
    {
      "name": "leg-right",
      "translation": [
        0.115,
        0.54,
        0
      ],
      "mesh": 5
    },
    {
      "name": "weapon",
      "translation": [
        0,
        -0.255,
        0.12
      ],
      "mesh": 6
    }
  ],
  "meshes": [
    {
      "name": "torso",
      "primitives": [
        {
          "attributes": {
            "POSITION": 0,
            "NORMAL": 1,
            "COLOR_0": 2,
            "TEXCOORD_0": 3
          },
          "indices": 4,
          "material": 0
        },
        {
          "attributes": {
            "POSITION": 5,
            "NORMAL": 6,
            "COLOR_0": 7,
            "TEXCOORD_0": 8
          },
          "indices": 9,
          "material": 1
        }
      ]
    },
    {
      "name": "head",
      "primitives": [
        {
          "attributes": {
            "POSITION": 10,
            "NORMAL": 11,
            "COLOR_0": 12,
            "TEXCOORD_0": 13
          },
          "indices": 14,
          "material": 0
        },
        {
          "attributes": {
            "POSITION": 15,
            "NORMAL": 16,
            "COLOR_0": 17,
            "TEXCOORD_0": 18
          },
          "indices": 19,
          "material": 1
        }
      ]
    },
    {
      "name": "arm-left",
      "primitives": [
        {
          "attributes": {
            "POSITION": 20,
            "NORMAL": 21,
            "COLOR_0": 22,
            "TEXCOORD_0": 23
          },
          "indices": 24,
          "material": 0
        },
        {
          "attributes": {
            "POSITION": 25,
            "NORMAL": 26,
            "COLOR_0": 27,
            "TEXCOORD_0": 28
          },
          "indices": 29,
          "material": 1
        }
      ]
    },
    {
      "name": "leg-left",
      "primitives": [
        {
          "attributes": {
            "POSITION": 30,
            "NORMAL": 31,
            "COLOR_0": 32,
            "TEXCOORD_0": 33
          },
          "indices": 34,
          "material": 0
        }
      ]
    },
    {
      "name": "arm-right",
      "primitives": [
        {
          "attributes": {
            "POSITION": 35,
            "NORMAL": 36,
            "COLOR_0": 37,
            "TEXCOORD_0": 38
          },
          "indices": 39,
          "material": 0
        },
        {
          "attributes": {
            "POSITION": 40,
            "NORMAL": 41,
            "COLOR_0": 42,
            "TEXCOORD_0": 43
          },
          "indices": 44,
          "material": 1
        }
      ]
    },
    {
      "name": "leg-right",
      "primitives": [
        {
          "attributes": {
            "POSITION": 45,
            "NORMAL": 46,
            "COLOR_0": 47,
            "TEXCOORD_0": 48
          },
          "indices": 49,
          "material": 0
        }
      ]
    },
    {
      "name": "weapon",
      "primitives": [
        {
          "attributes": {
            "POSITION": 50,
            "NORMAL": 51,
            "COLOR_0": 52,
            "TEXCOORD_0": 53
          },
          "indices": 54,
          "material": 0
        },
        {
          "attributes": {
            "POSITION": 55,
            "NORMAL": 56,
            "COLOR_0": 57,
            "TEXCOORD_0": 58
          },
          "indices": 59,
          "material": 1
        }
      ]
    }
  ],
  "materials": [
    {
      "name": "Ceramic and anodized alloy",
      "pbrMetallicRoughness": {
        "baseColorFactor": [
          1,
          1,
          1,
          1
        ],
        "metallicFactor": 0.42,
        "roughnessFactor": 0.56
      }
    },
    {
      "name": "Amber targeting optics",
      "pbrMetallicRoughness": {
        "baseColorFactor": [
          1,
          0.5332764040105052,
          0.19806931955994886,
          1
        ],
        "metallicFactor": 0.05,
        "roughnessFactor": 0.35
      },
      "emissiveFactor": [
        1,
        0.5332764040105052,
        0.19806931955994886
      ]
    }
  ],
  "accessors": [
    {
      "bufferView": 0,
      "componentType": 5126,
      "count": 472,
      "type": "VEC3",
      "min": [
        -0.23999999463558197,
        -0.16500000655651093,
        -0.22499999403953552
      ],
      "max": [
        0.23999999463558197,
        0.28999999165534973,
        0.15700000524520874
      ]
    },
    {
      "bufferView": 1,
      "componentType": 5126,
      "count": 472,
      "type": "VEC3",
      "min": [
        -1,
        -1,
        -1
      ],
      "max": [
        1,
        1,
        1
      ]
    },
    {
      "bufferView": 2,
      "componentType": 5126,
      "count": 472,
      "type": "VEC3",
      "min": [
        0.006995410192757845,
        0.016807375475764275,
        0.03310476616024971
      ],
      "max": [
        0.5840784311294556,
        0.2917706370353699,
        0.20507873594760895
      ]
    },
    {
      "bufferView": 3,
      "componentType": 5126,
      "count": 472,
      "type": "VEC2"
    },
    {
      "bufferView": 4,
      "componentType": 5123,
      "count": 756,
      "type": "SCALAR"
    },
    {
      "bufferView": 5,
      "componentType": 5126,
      "count": 72,
      "type": "VEC3",
      "min": [
        -0.08749999850988388,
        0.09000000357627869,
        -0.2370000034570694
      ],
      "max": [
        0.08749999850988388,
        0.2549999952316284,
        0.16449999809265137
      ]
    },
    {
      "bufferView": 6,
      "componentType": 5126,
      "count": 72,
      "type": "VEC3",
      "min": [
        -1,
        -1,
        -1
      ],
      "max": [
        1,
        1,
        1
      ]
    },
    {
      "bufferView": 7,
      "componentType": 5126,
      "count": 72,
      "type": "VEC3",
      "min": [
        1,
        1,
        1
      ],
      "max": [
        1,
        1,
        1
      ]
    },
    {
      "bufferView": 8,
      "componentType": 5126,
      "count": 72,
      "type": "VEC2"
    },
    {
      "bufferView": 9,
      "componentType": 5123,
      "count": 108,
      "type": "SCALAR"
    },
    {
      "bufferView": 10,
      "componentType": 5126,
      "count": 520,
      "type": "VEC3",
      "min": [
        -0.14499999582767487,
        -0.03750000149011612,
        -0.125
      ],
      "max": [
        0.14499999582767487,
        0.2475000023841858,
        0.15000000596046448
      ]
    },
    {
      "bufferView": 11,
      "componentType": 5126,
      "count": 520,
      "type": "VEC3",
      "min": [
        -1,
        -1,
        -1
      ],
      "max": [
        1,
        1,
        1
      ]
    },
    {
      "bufferView": 12,
      "componentType": 5126,
      "count": 520,
      "type": "VEC3",
      "min": [
        0.0030352699104696512,
        0.006995410192757845,
        0.012983032502233982
      ],
      "max": [
        0.5840784311294556,
        0.2917706370353699,
        0.20507873594760895
      ]
    },
    {
      "bufferView": 13,
      "componentType": 5126,
      "count": 520,
      "type": "VEC2"
    },
    {
      "bufferView": 14,
      "componentType": 5123,
      "count": 840,
      "type": "SCALAR"
    },
    {
      "bufferView": 15,
      "componentType": 5126,
      "count": 24,
      "type": "VEC3",
      "min": [
        -0.04500000178813934,
        0.0925000011920929,
        0.14499999582767487
      ],
      "max": [
        0.04500000178813934,
        0.14749999344348907,
        0.15700000524520874
      ]
    },
    {
      "bufferView": 16,
      "componentType": 5126,
      "count": 24,
      "type": "VEC3",
      "min": [
        -1,
        -1,
        -1
      ],
      "max": [
        1,
        1,
        1
      ]
    },
    {
      "bufferView": 17,
      "componentType": 5126,
      "count": 24,
      "type": "VEC3",
      "min": [
        1,
        1,
        1
      ],
      "max": [
        1,
        1,
        1
      ]
    },
    {
      "bufferView": 18,
      "componentType": 5126,
      "count": 24,
      "type": "VEC2"
    },
    {
      "bufferView": 19,
      "componentType": 5123,
      "count": 36,
      "type": "SCALAR"
    },
    {
      "bufferView": 20,
      "componentType": 5126,
      "count": 336,
      "type": "VEC3",
      "min": [
        -0.0949999988079071,
        -0.3499999940395355,
        -0.10999999940395355
      ],
      "max": [
        0.0949999988079071,
        0.07000000029802322,
        0.1274999976158142
      ]
    },
    {
      "bufferView": 21,
      "componentType": 5126,
      "count": 336,
      "type": "VEC3",
      "min": [
        -1,
        -1,
        -1
      ],
      "max": [
        1,
        1,
        1
      ]
    },
    {
      "bufferView": 22,
      "componentType": 5126,
      "count": 336,
      "type": "VEC3",
      "min": [
        0.006995410192757845,
        0.016807375475764275,
        0.03310476616024971
      ],
      "max": [
        0.38642942905426025,
        0.15592646598815918,
        0.20507873594760895
      ]
    },
    {
      "bufferView": 23,
      "componentType": 5126,
      "count": 336,
      "type": "VEC2"
    },
    {
      "bufferView": 24,
      "componentType": 5123,
      "count": 540,
      "type": "SCALAR"
    },
    {
      "bufferView": 25,
      "componentType": 5126,
      "count": 24,
      "type": "VEC3",
      "min": [
        -0.07750000059604645,
        0.017000000923871994,
        0.0625
      ],
      "max": [
        -0.012500000186264515,
        0.03700000047683716,
        0.08749999850988388
      ]
    },
    {
      "bufferView": 26,
      "componentType": 5126,
      "count": 24,
      "type": "VEC3",
      "min": [
        -1,
        -1,
        -1
      ],
      "max": [
        1,
        1,
        1
      ]
    },
    {
      "bufferView": 27,
      "componentType": 5126,
      "count": 24,
      "type": "VEC3",
      "min": [
        1,
        1,
        1
      ],
      "max": [
        1,
        1,
        1
      ]
    },
    {
      "bufferView": 28,
      "componentType": 5126,
      "count": 24,
      "type": "VEC2"
    },
    {
      "bufferView": 29,
      "componentType": 5123,
      "count": 36,
      "type": "SCALAR"
    },
    {
      "bufferView": 30,
      "componentType": 5126,
      "count": 472,
      "type": "VEC3",
      "min": [
        -0.07999999821186066,
        -0.5379999876022339,
        -0.09000000357627869
      ],
      "max": [
        0.07999999821186066,
        0,
        0.18000000715255737
      ]
    },
    {
      "bufferView": 31,
      "componentType": 5126,
      "count": 472,
      "type": "VEC3",
      "min": [
        -1,
        -1,
        -1
      ],
      "max": [
        1,
        1,
        1
      ]
    },
    {
      "bufferView": 32,
      "componentType": 5126,
      "count": 472,
      "type": "VEC3",
      "min": [
        0.006995410192757845,
        0.016807375475764275,
        0.03310476616024971
      ],
      "max": [
        0.5840784311294556,
        0.2917706370353699,
        0.20507873594760895
      ]
    },
    {
      "bufferView": 33,
      "componentType": 5126,
      "count": 472,
      "type": "VEC2"
    },
    {
      "bufferView": 34,
      "componentType": 5123,
      "count": 756,
      "type": "SCALAR"
    },
    {
      "bufferView": 35,
      "componentType": 5126,
      "count": 336,
      "type": "VEC3",
      "min": [
        -0.0949999988079071,
        -0.3499999940395355,
        -0.10999999940395355
      ],
      "max": [
        0.0949999988079071,
        0.07000000029802322,
        0.1274999976158142
      ]
    },
    {
      "bufferView": 36,
      "componentType": 5126,
      "count": 336,
      "type": "VEC3",
      "min": [
        -1,
        -1,
        -1
      ],
      "max": [
        1,
        1,
        1
      ]
    },
    {
      "bufferView": 37,
      "componentType": 5126,
      "count": 336,
      "type": "VEC3",
      "min": [
        0.006995410192757845,
        0.016807375475764275,
        0.03310476616024971
      ],
      "max": [
        0.38642942905426025,
        0.15592646598815918,
        0.20507873594760895
      ]
    },
    {
      "bufferView": 38,
      "componentType": 5126,
      "count": 336,
      "type": "VEC2"
    },
    {
      "bufferView": 39,
      "componentType": 5123,
      "count": 540,
      "type": "SCALAR"
    },
    {
      "bufferView": 40,
      "componentType": 5126,
      "count": 24,
      "type": "VEC3",
      "min": [
        0.012500000186264515,
        0.017000000923871994,
        0.0625
      ],
      "max": [
        0.07750000059604645,
        0.03700000047683716,
        0.08749999850988388
      ]
    },
    {
      "bufferView": 41,
      "componentType": 5126,
      "count": 24,
      "type": "VEC3",
      "min": [
        -1,
        -1,
        -1
      ],
      "max": [
        1,
        1,
        1
      ]
    },
    {
      "bufferView": 42,
      "componentType": 5126,
      "count": 24,
      "type": "VEC3",
      "min": [
        1,
        1,
        1
      ],
      "max": [
        1,
        1,
        1
      ]
    },
    {
      "bufferView": 43,
      "componentType": 5126,
      "count": 24,
      "type": "VEC2"
    },
    {
      "bufferView": 44,
      "componentType": 5123,
      "count": 36,
      "type": "SCALAR"
    },
    {
      "bufferView": 45,
      "componentType": 5126,
      "count": 472,
      "type": "VEC3",
      "min": [
        -0.07999999821186066,
        -0.5379999876022339,
        -0.09000000357627869
      ],
      "max": [
        0.07999999821186066,
        0,
        0.18000000715255737
      ]
    },
    {
      "bufferView": 46,
      "componentType": 5126,
      "count": 472,
      "type": "VEC3",
      "min": [
        -1,
        -1,
        -1
      ],
      "max": [
        1,
        1,
        1
      ]
    },
    {
      "bufferView": 47,
      "componentType": 5126,
      "count": 472,
      "type": "VEC3",
      "min": [
        0.006995410192757845,
        0.016807375475764275,
        0.03310476616024971
      ],
      "max": [
        0.5840784311294556,
        0.2917706370353699,
        0.20507873594760895
      ]
    },
    {
      "bufferView": 48,
      "componentType": 5126,
      "count": 472,
      "type": "VEC2"
    },
    {
      "bufferView": 49,
      "componentType": 5123,
      "count": 756,
      "type": "SCALAR"
    },
    {
      "bufferView": 50,
      "componentType": 5126,
      "count": 160,
      "type": "VEC3",
      "min": [
        -0.04749999940395355,
        -0.02500000037252903,
        -0.07000000029802322
      ],
      "max": [
        0.04749999940395355,
        0.12800000607967377,
        0.3149999976158142
      ]
    },
    {
      "bufferView": 51,
      "componentType": 5126,
      "count": 160,
      "type": "VEC3",
      "min": [
        -1,
        -1,
        -1
      ],
      "max": [
        1,
        1,
        1
      ]
    },
    {
      "bufferView": 52,
      "componentType": 5126,
      "count": 160,
      "type": "VEC3",
      "min": [
        0.006995410192757845,
        0.016807375475764275,
        0.03310476616024971
      ],
      "max": [
        0.34191441535949707,
        0.4793201684951782,
        0.520995557308197
      ]
    },
    {
      "bufferView": 53,
      "componentType": 5126,
      "count": 160,
      "type": "VEC2"
    },
    {
      "bufferView": 54,
      "componentType": 5123,
      "count": 252,
      "type": "SCALAR"
    },
    {
      "bufferView": 55,
      "componentType": 5126,
      "count": 24,
      "type": "VEC3",
      "min": [
        -0.013000000268220901,
        0.017000000923871994,
        0.3140000104904175
      ],
      "max": [
        0.013000000268220901,
        0.0430000014603138,
        0.3179999887943268
      ]
    },
    {
      "bufferView": 56,
      "componentType": 5126,
      "count": 24,
      "type": "VEC3",
      "min": [
        -1,
        -1,
        -1
      ],
      "max": [
        1,
        1,
        1
      ]
    },
    {
      "bufferView": 57,
      "componentType": 5126,
      "count": 24,
      "type": "VEC3",
      "min": [
        1,
        1,
        1
      ],
      "max": [
        1,
        1,
        1
      ]
    },
    {
      "bufferView": 58,
      "componentType": 5126,
      "count": 24,
      "type": "VEC2"
    },
    {
      "bufferView": 59,
      "componentType": 5123,
      "count": 36,
      "type": "SCALAR"
    },
    {
      "bufferView": 60,
      "componentType": 5126,
      "count": 9,
      "type": "SCALAR",
      "min": [
        0
      ],
      "max": [
        2
      ]
    },
    {
      "bufferView": 61,
      "componentType": 5126,
      "count": 9,
      "type": "VEC4"
    },
    {
      "bufferView": 62,
      "componentType": 5126,
      "count": 9,
      "type": "SCALAR",
      "min": [
        0
      ],
      "max": [
        2
      ]
    },
    {
      "bufferView": 63,
      "componentType": 5126,
      "count": 9,
      "type": "VEC3",
      "min": [
        0,
        0.671999990940094,
        0
      ],
      "max": [
        0,
        0.6880000233650208,
        0
      ]
    },
    {
      "bufferView": 64,
      "componentType": 5126,
      "count": 9,
      "type": "SCALAR",
      "min": [
        0
      ],
      "max": [
        1
      ]
    },
    {
      "bufferView": 65,
      "componentType": 5126,
      "count": 9,
      "type": "VEC4"
    },
    {
      "bufferView": 66,
      "componentType": 5126,
      "count": 9,
      "type": "SCALAR",
      "min": [
        0
      ],
      "max": [
        1
      ]
    },
    {
      "bufferView": 67,
      "componentType": 5126,
      "count": 9,
      "type": "VEC4"
    },
    {
      "bufferView": 68,
      "componentType": 5126,
      "count": 9,
      "type": "SCALAR",
      "min": [
        0
      ],
      "max": [
        1
      ]
    },
    {
      "bufferView": 69,
      "componentType": 5126,
      "count": 9,
      "type": "VEC4"
    },
    {
      "bufferView": 70,
      "componentType": 5126,
      "count": 9,
      "type": "SCALAR",
      "min": [
        0
      ],
      "max": [
        1
      ]
    },
    {
      "bufferView": 71,
      "componentType": 5126,
      "count": 9,
      "type": "VEC4"
    },
    {
      "bufferView": 72,
      "componentType": 5126,
      "count": 9,
      "type": "SCALAR",
      "min": [
        0
      ],
      "max": [
        0.2800000011920929
      ]
    },
    {
      "bufferView": 73,
      "componentType": 5126,
      "count": 9,
      "type": "VEC4"
    },
    {
      "bufferView": 74,
      "componentType": 5126,
      "count": 9,
      "type": "SCALAR",
      "min": [
        0
      ],
      "max": [
        0.2800000011920929
      ]
    },
    {
      "bufferView": 75,
      "componentType": 5126,
      "count": 9,
      "type": "VEC4"
    },
    {
      "bufferView": 76,
      "componentType": 5126,
      "count": 9,
      "type": "SCALAR",
      "min": [
        0
      ],
      "max": [
        0.6000000238418579
      ]
    },
    {
      "bufferView": 77,
      "componentType": 5126,
      "count": 9,
      "type": "VEC4"
    },
    {
      "bufferView": 78,
      "componentType": 5126,
      "count": 9,
      "type": "SCALAR",
      "min": [
        0
      ],
      "max": [
        0.6000000238418579
      ]
    },
    {
      "bufferView": 79,
      "componentType": 5126,
      "count": 9,
      "type": "VEC3",
      "min": [
        0,
        0,
        0
      ],
      "max": [
        0.18000000715255737,
        0.15000000596046448,
        0
      ]
    }
  ],
  "bufferViews": [
    {
      "buffer": 0,
      "byteOffset": 0,
      "byteLength": 5664,
      "target": 34962
    },
    {
      "buffer": 0,
      "byteOffset": 5664,
      "byteLength": 5664,
      "target": 34962
    },
    {
      "buffer": 0,
      "byteOffset": 11328,
      "byteLength": 5664,
      "target": 34962
    },
    {
      "buffer": 0,
      "byteOffset": 16992,
      "byteLength": 3776,
      "target": 34962
    },
    {
      "buffer": 0,
      "byteOffset": 20768,
      "byteLength": 1512,
      "target": 34963
    },
    {
      "buffer": 0,
      "byteOffset": 22280,
      "byteLength": 864,
      "target": 34962
    },
    {
      "buffer": 0,
      "byteOffset": 23144,
      "byteLength": 864,
      "target": 34962
    },
    {
      "buffer": 0,
      "byteOffset": 24008,
      "byteLength": 864,
      "target": 34962
    },
    {
      "buffer": 0,
      "byteOffset": 24872,
      "byteLength": 576,
      "target": 34962
    },
    {
      "buffer": 0,
      "byteOffset": 25448,
      "byteLength": 216,
      "target": 34963
    },
    {
      "buffer": 0,
      "byteOffset": 25664,
      "byteLength": 6240,
      "target": 34962
    },
    {
      "buffer": 0,
      "byteOffset": 31904,
      "byteLength": 6240,
      "target": 34962
    },
    {
      "buffer": 0,
      "byteOffset": 38144,
      "byteLength": 6240,
      "target": 34962
    },
    {
      "buffer": 0,
      "byteOffset": 44384,
      "byteLength": 4160,
      "target": 34962
    },
    {
      "buffer": 0,
      "byteOffset": 48544,
      "byteLength": 1680,
      "target": 34963
    },
    {
      "buffer": 0,
      "byteOffset": 50224,
      "byteLength": 288,
      "target": 34962
    },
    {
      "buffer": 0,
      "byteOffset": 50512,
      "byteLength": 288,
      "target": 34962
    },
    {
      "buffer": 0,
      "byteOffset": 50800,
      "byteLength": 288,
      "target": 34962
    },
    {
      "buffer": 0,
      "byteOffset": 51088,
      "byteLength": 192,
      "target": 34962
    },
    {
      "buffer": 0,
      "byteOffset": 51280,
      "byteLength": 72,
      "target": 34963
    },
    {
      "buffer": 0,
      "byteOffset": 51352,
      "byteLength": 4032,
      "target": 34962
    },
    {
      "buffer": 0,
      "byteOffset": 55384,
      "byteLength": 4032,
      "target": 34962
    },
    {
      "buffer": 0,
      "byteOffset": 59416,
      "byteLength": 4032,
      "target": 34962
    },
    {
      "buffer": 0,
      "byteOffset": 63448,
      "byteLength": 2688,
      "target": 34962
    },
    {
      "buffer": 0,
      "byteOffset": 66136,
      "byteLength": 1080,
      "target": 34963
    },
    {
      "buffer": 0,
      "byteOffset": 67216,
      "byteLength": 288,
      "target": 34962
    },
    {
      "buffer": 0,
      "byteOffset": 67504,
      "byteLength": 288,
      "target": 34962
    },
    {
      "buffer": 0,
      "byteOffset": 67792,
      "byteLength": 288,
      "target": 34962
    },
    {
      "buffer": 0,
      "byteOffset": 68080,
      "byteLength": 192,
      "target": 34962
    },
    {
      "buffer": 0,
      "byteOffset": 68272,
      "byteLength": 72,
      "target": 34963
    },
    {
      "buffer": 0,
      "byteOffset": 68344,
      "byteLength": 5664,
      "target": 34962
    },
    {
      "buffer": 0,
      "byteOffset": 74008,
      "byteLength": 5664,
      "target": 34962
    },
    {
      "buffer": 0,
      "byteOffset": 79672,
      "byteLength": 5664,
      "target": 34962
    },
    {
      "buffer": 0,
      "byteOffset": 85336,
      "byteLength": 3776,
      "target": 34962
    },
    {
      "buffer": 0,
      "byteOffset": 89112,
      "byteLength": 1512,
      "target": 34963
    },
    {
      "buffer": 0,
      "byteOffset": 90624,
      "byteLength": 4032,
      "target": 34962
    },
    {
      "buffer": 0,
      "byteOffset": 94656,
      "byteLength": 4032,
      "target": 34962
    },
    {
      "buffer": 0,
      "byteOffset": 98688,
      "byteLength": 4032,
      "target": 34962
    },
    {
      "buffer": 0,
      "byteOffset": 102720,
      "byteLength": 2688,
      "target": 34962
    },
    {
      "buffer": 0,
      "byteOffset": 105408,
      "byteLength": 1080,
      "target": 34963
    },
    {
      "buffer": 0,
      "byteOffset": 106488,
      "byteLength": 288,
      "target": 34962
    },
    {
      "buffer": 0,
      "byteOffset": 106776,
      "byteLength": 288,
      "target": 34962
    },
    {
      "buffer": 0,
      "byteOffset": 107064,
      "byteLength": 288,
      "target": 34962
    },
    {
      "buffer": 0,
      "byteOffset": 107352,
      "byteLength": 192,
      "target": 34962
    },
    {
      "buffer": 0,
      "byteOffset": 107544,
      "byteLength": 72,
      "target": 34963
    },
    {
      "buffer": 0,
      "byteOffset": 107616,
      "byteLength": 5664,
      "target": 34962
    },
    {
      "buffer": 0,
      "byteOffset": 113280,
      "byteLength": 5664,
      "target": 34962
    },
    {
      "buffer": 0,
      "byteOffset": 118944,
      "byteLength": 5664,
      "target": 34962
    },
    {
      "buffer": 0,
      "byteOffset": 124608,
      "byteLength": 3776,
      "target": 34962
    },
    {
      "buffer": 0,
      "byteOffset": 128384,
      "byteLength": 1512,
      "target": 34963
    },
    {
      "buffer": 0,
      "byteOffset": 129896,
      "byteLength": 1920,
      "target": 34962
    },
    {
      "buffer": 0,
      "byteOffset": 131816,
      "byteLength": 1920,
      "target": 34962
    },
    {
      "buffer": 0,
      "byteOffset": 133736,
      "byteLength": 1920,
      "target": 34962
    },
    {
      "buffer": 0,
      "byteOffset": 135656,
      "byteLength": 1280,
      "target": 34962
    },
    {
      "buffer": 0,
      "byteOffset": 136936,
      "byteLength": 504,
      "target": 34963
    },
    {
      "buffer": 0,
      "byteOffset": 137440,
      "byteLength": 288,
      "target": 34962
    },
    {
      "buffer": 0,
      "byteOffset": 137728,
      "byteLength": 288,
      "target": 34962
    },
    {
      "buffer": 0,
      "byteOffset": 138016,
      "byteLength": 288,
      "target": 34962
    },
    {
      "buffer": 0,
      "byteOffset": 138304,
      "byteLength": 192,
      "target": 34962
    },
    {
      "buffer": 0,
      "byteOffset": 138496,
      "byteLength": 72,
      "target": 34963
    },
    {
      "buffer": 0,
      "byteOffset": 138568,
      "byteLength": 36
    },
    {
      "buffer": 0,
      "byteOffset": 138604,
      "byteLength": 144
    },
    {
      "buffer": 0,
      "byteOffset": 138748,
      "byteLength": 36
    },
    {
      "buffer": 0,
      "byteOffset": 138784,
      "byteLength": 108
    },
    {
      "buffer": 0,
      "byteOffset": 138892,
      "byteLength": 36
    },
    {
      "buffer": 0,
      "byteOffset": 138928,
      "byteLength": 144
    },
    {
      "buffer": 0,
      "byteOffset": 139072,
      "byteLength": 36
    },
    {
      "buffer": 0,
      "byteOffset": 139108,
      "byteLength": 144
    },
    {
      "buffer": 0,
      "byteOffset": 139252,
      "byteLength": 36
    },
    {
      "buffer": 0,
      "byteOffset": 139288,
      "byteLength": 144
    },
    {
      "buffer": 0,
      "byteOffset": 139432,
      "byteLength": 36
    },
    {
      "buffer": 0,
      "byteOffset": 139468,
      "byteLength": 144
    },
    {
      "buffer": 0,
      "byteOffset": 139612,
      "byteLength": 36
    },
    {
      "buffer": 0,
      "byteOffset": 139648,
      "byteLength": 144
    },
    {
      "buffer": 0,
      "byteOffset": 139792,
      "byteLength": 36
    },
    {
      "buffer": 0,
      "byteOffset": 139828,
      "byteLength": 144
    },
    {
      "buffer": 0,
      "byteOffset": 139972,
      "byteLength": 36
    },
    {
      "buffer": 0,
      "byteOffset": 140008,
      "byteLength": 144
    },
    {
      "buffer": 0,
      "byteOffset": 140152,
      "byteLength": 36
    },
    {
      "buffer": 0,
      "byteOffset": 140188,
      "byteLength": 108
    }
  ],
  "buffers": [
    {
      "byteLength": 140296,
      "uri": "data:application/octet-stream;base64,"
    }
  ],
  "extras": {
    "units": "One unit is one navigation cell. +Y up; actors face +Z; origin at feet.",
    "triangles": 1564,
    "primitives": 12,
    "source": "source/generate.mjs"
  },
  "animations": [
    {
      "name": "idle",
      "samplers": [
        {
          "input": 60,
          "output": 61,
          "interpolation": "LINEAR"
        },
        {
          "input": 62,
          "output": 63,
          "interpolation": "LINEAR"
        }
      ],
      "channels": [
        {
          "sampler": 0,
          "target": {
            "node": 2,
            "path": "rotation"
          }
        },
        {
          "sampler": 1,
          "target": {
            "node": 1,
            "path": "translation"
          }
        }
      ]
    },
    {
      "name": "walk",
      "samplers": [
        {
          "input": 64,
          "output": 65,
          "interpolation": "LINEAR"
        },
        {
          "input": 66,
          "output": 67,
          "interpolation": "LINEAR"
        },
        {
          "input": 68,
          "output": 69,
          "interpolation": "LINEAR"
        },
        {
          "input": 70,
          "output": 71,
          "interpolation": "LINEAR"
        }
      ],
      "channels": [
        {
          "sampler": 0,
          "target": {
            "node": 4,
            "path": "rotation"
          }
        },
        {
          "sampler": 1,
          "target": {
            "node": 6,
            "path": "rotation"
          }
        },
        {
          "sampler": 2,
          "target": {
            "node": 3,
            "path": "rotation"
          }
        },
        {
          "sampler": 3,
          "target": {
            "node": 5,
            "path": "rotation"
          }
        }
      ]
    },
    {
      "name": "attack",
      "samplers": [
        {
          "input": 72,
          "output": 73,
          "interpolation": "LINEAR"
        },
        {
          "input": 74,
          "output": 75,
          "interpolation": "LINEAR"
        }
      ],
      "channels": [
        {
          "sampler": 0,
          "target": {
            "node": 5,
            "path": "rotation"
          }
        },
        {
          "sampler": 1,
          "target": {
            "node": 1,
            "path": "rotation"
          }
        }
      ]
    },
    {
      "name": "death",
      "samplers": [
        {
          "input": 76,
          "output": 77,
          "interpolation": "LINEAR"
        },
        {
          "input": 78,
          "output": 79,
          "interpolation": "LINEAR"
        }
      ],
      "channels": [
        {
          "sampler": 0,
          "target": {
            "node": 0,
            "path": "rotation"
          }
        },
        {
          "sampler": 1,
          "target": {
            "node": 0,
            "path": "translation"
          }
        }
      ]
    }
  ]
}
