{
  "asset": {
    "version": "2.0",
    "generator": "Aegis Server Vault original procedural kit v1",
    "copyright": "2026 Aegis contributors. MIT. See LICENSE.txt."
  },
  "scene": 0,
  "scenes": [
    {
      "name": "Low tactical service partition",
      "nodes": [
        0
      ]
    }
  ],
  "nodes": [
    {
      "name": "root",
      "children": [
        1
      ]
    },
    {
      "name": "partition",
      "translation": [
        0,
        0,
        0
      ],
      "mesh": 0
    }
  ],
  "meshes": [
    {
      "name": "partition",
      "primitives": [
        {
          "attributes": {
            "POSITION": 0,
            "NORMAL": 1,
            "COLOR_0": 2,
            "TEXCOORD_0": 3
          },
          "indices": 4,
          "material": 0
        },
        {
          "attributes": {
            "POSITION": 5,
            "NORMAL": 6,
            "COLOR_0": 7,
            "TEXCOORD_0": 8
          },
          "indices": 9,
          "material": 1
        }
      ]
    }
  ],
  "materials": [
    {
      "name": "Ceramic and anodized alloy",
      "pbrMetallicRoughness": {
        "baseColorFactor": [
          1,
          1,
          1,
          1
        ],
        "metallicFactor": 0.42,
        "roughnessFactor": 0.56
      }
    },
    {
      "name": "Vented composite service panel",
      "pbrMetallicRoughness": {
        "baseColorTexture": {
          "index": 0
        },
        "metallicFactor": 0.25,
        "roughnessFactor": 0.62
      }
    }
  ],
  "accessors": [
    {
      "bufferView": 0,
      "componentType": 5126,
      "count": 232,
      "type": "VEC3",
      "min": [
        -0.5,
        0,
        -0.5
      ],
      "max": [
        0.5,
        0.421999990940094,
        0.5
      ]
    },
    {
      "bufferView": 1,
      "componentType": 5126,
      "count": 232,
      "type": "VEC3",
      "min": [
        -1,
        -1,
        -1
      ],
      "max": [
        1,
        1,
        1
      ]
    },
    {
      "bufferView": 2,
      "componentType": 5126,
      "count": 232,
      "type": "VEC3",
      "min": [
        0.0030352699104696512,
        0.006995410192757845,
        0.012983032502233982
      ],
      "max": [
        0.08437620848417282,
        0.15592646598815918,
        0.20507873594760895
      ]
    },
    {
      "bufferView": 3,
      "componentType": 5126,
      "count": 232,
      "type": "VEC2"
    },
    {
      "bufferView": 4,
      "componentType": 5123,
      "count": 360,
      "type": "SCALAR"
    },
    {
      "bufferView": 5,
      "componentType": 5126,
      "count": 4,
      "type": "VEC3",
      "min": [
        -0.3970000147819519,
        0.42500001192092896,
        -0.3970000147819519
      ],
      "max": [
        0.3970000147819519,
        0.42500001192092896,
        0.3970000147819519
      ]
    },
    {
      "bufferView": 6,
      "componentType": 5126,
      "count": 4,
      "type": "VEC3",
      "min": [
        0,
        1,
        0
      ],
      "max": [
        0,
        1,
        0
      ]
    },
    {
      "bufferView": 7,
      "componentType": 5126,
      "count": 4,
      "type": "VEC3",
      "min": [
        1,
        1,
        1
      ],
      "max": [
        1,
        1,
        1
      ]
    },
    {
      "bufferView": 8,
      "componentType": 5126,
      "count": 4,
      "type": "VEC2"
    },
    {
      "bufferView": 9,
      "componentType": 5123,
      "count": 6,
      "type": "SCALAR"
    }
  ],
  "bufferViews": [
    {
      "buffer": 0,
      "byteOffset": 0,
      "byteLength": 2784,
      "target": 34962
    },
    {
      "buffer": 0,
      "byteOffset": 2784,
      "byteLength": 2784,
      "target": 34962
    },
    {
      "buffer": 0,
      "byteOffset": 5568,
      "byteLength": 2784,
      "target": 34962
    },
    {
      "buffer": 0,
      "byteOffset": 8352,
      "byteLength": 1856,
      "target": 34962
    },
    {
      "buffer": 0,
      "byteOffset": 10208,
      "byteLength": 720,
      "target": 34963
    },
    {
      "buffer": 0,
      "byteOffset": 10928,
      "byteLength": 48,
      "target": 34962
    },
    {
      "buffer": 0,
      "byteOffset": 10976,
      "byteLength": 48,
      "target": 34962
    },
    {
      "buffer": 0,
      "byteOffset": 11024,
      "byteLength": 48,
      "target": 34962
    },
    {
      "buffer": 0,
      "byteOffset": 11072,
      "byteLength": 32,
      "target": 34962
    },
    {
      "buffer": 0,
      "byteOffset": 11104,
      "byteLength": 12,
      "target": 34963
    }
  ],
  "buffers": [
    {
      "byteLength": 11116,
      "uri": "data:application/octet-stream;base64,"
    }
  ],
  "extras": {
    "units": "One unit is one navigation cell. +Y up; actors face +Z; origin at feet.",
    "triangles": 122,
    "primitives": 2,
    "source": "source/generate.mjs"
  },
  "images": [
    {
      "uri": "partition-panel.png"
    }
  ],
  "textures": [
    {
      "source": 0,
      "sampler": 0
    }
  ],
  "samplers": [
    {
      "magFilter": 9729,
      "minFilter": 9987,
      "wrapS": 10497,
      "wrapT": 10497
    }
  ]
}
