{
  "asset": {
    "version": "2.0",
    "generator": "Aegis Server Vault original procedural kit v1",
    "copyright": "2026 Aegis contributors. MIT. See LICENSE.txt."
  },
  "scene": 0,
  "scenes": [
    {
      "name": "Retracting security shutter",
      "nodes": [
        0
      ]
    }
  ],
  "nodes": [
    {
      "name": "root",
      "children": [
        1,
        2,
        3
      ]
    },
    {
      "name": "frame",
      "translation": [
        0,
        0,
        0
      ],
      "mesh": 0
    },
    {
      "name": "leaf-left",
      "translation": [
        -0.197,
        0,
        0
      ],
      "mesh": 1
    },
    {
      "name": "leaf-right",
      "translation": [
        0.197,
        0,
        0
      ],
      "mesh": 2
    }
  ],
  "meshes": [
    {
      "name": "frame",
      "primitives": [
        {
          "attributes": {
            "POSITION": 0,
            "NORMAL": 1,
            "COLOR_0": 2,
            "TEXCOORD_0": 3
          },
          "indices": 4,
          "material": 0
        },
        {
          "attributes": {
            "POSITION": 5,
            "NORMAL": 6,
            "COLOR_0": 7,
            "TEXCOORD_0": 8
          },
          "indices": 9,
          "material": 1
        }
      ]
    },
    {
      "name": "leaf-left",
      "primitives": [
        {
          "attributes": {
            "POSITION": 10,
            "NORMAL": 11,
            "COLOR_0": 12,
            "TEXCOORD_0": 13
          },
          "indices": 14,
          "material": 0
        },
        {
          "attributes": {
            "POSITION": 15,
            "NORMAL": 16,
            "COLOR_0": 17,
            "TEXCOORD_0": 18
          },
          "indices": 19,
          "material": 1
        }
      ]
    },
    {
      "name": "leaf-right",
      "primitives": [
        {
          "attributes": {
            "POSITION": 20,
            "NORMAL": 21,
            "COLOR_0": 22,
            "TEXCOORD_0": 23
          },
          "indices": 24,
          "material": 0
        },
        {
          "attributes": {
            "POSITION": 25,
            "NORMAL": 26,
            "COLOR_0": 27,
            "TEXCOORD_0": 28
          },
          "indices": 29,
          "material": 1
        }
      ]
    }
  ],
  "materials": [
    {
      "name": "Ceramic and anodized alloy",
      "pbrMetallicRoughness": {
        "baseColorFactor": [
          1,
          1,
          1,
          1
        ],
        "metallicFactor": 0.42,
        "roughnessFactor": 0.56
      }
    },
    {
      "name": "Sealed door warning",
      "pbrMetallicRoughness": {
        "baseColorFactor": [
          0.938685728457888,
          0.4851499400560704,
          0.13286832155381798,
          1
        ],
        "metallicFactor": 0.05,
        "roughnessFactor": 0.35
      },
      "emissiveFactor": [
        0.938685728457888,
        0.4851499400560704,
        0.13286832155381798
      ]
    }
  ],
  "accessors": [
    {
      "bufferView": 0,
      "componentType": 5126,
      "count": 336,
      "type": "VEC3",
      "min": [
        -0.49000000953674316,
        0,
        -0.4399999976158142
      ],
      "max": [
        0.49000000953674316,
        0.4300000071525574,
        0.4399999976158142
      ]
    },
    {
      "bufferView": 1,
      "componentType": 5126,
      "count": 336,
      "type": "VEC3",
      "min": [
        -1,
        -1,
        -1
      ],
      "max": [
        1,
        1,
        1
      ]
    },
    {
      "bufferView": 2,
      "componentType": 5126,
      "count": 336,
      "type": "VEC3",
      "min": [
        0.006995410192757845,
        0.016807375475764275,
        0.03310476616024971
      ],
      "max": [
        0.08437620848417282,
        0.15592646598815918,
        0.20507873594760895
      ]
    },
    {
      "bufferView": 3,
      "componentType": 5126,
      "count": 336,
      "type": "VEC2"
    },
    {
      "bufferView": 4,
      "componentType": 5123,
      "count": 540,
      "type": "SCALAR"
    },
    {
      "bufferView": 5,
      "componentType": 5126,
      "count": 48,
      "type": "VEC3",
      "min": [
        -0.47699999809265137,
        0.42399999499320984,
        -0.13500000536441803
      ],
      "max": [
        0.47699999809265137,
        0.4320000112056732,
        0.13500000536441803
      ]
    },
    {
      "bufferView": 6,
      "componentType": 5126,
      "count": 48,
      "type": "VEC3",
      "min": [
        -1,
        -1,
        -1
      ],
      "max": [
        1,
        1,
        1
      ]
    },
    {
      "bufferView": 7,
      "componentType": 5126,
      "count": 48,
      "type": "VEC3",
      "min": [
        1,
        1,
        1
      ],
      "max": [
        1,
        1,
        1
      ]
    },
    {
      "bufferView": 8,
      "componentType": 5126,
      "count": 48,
      "type": "VEC2"
    },
    {
      "bufferView": 9,
      "componentType": 5123,
      "count": 72,
      "type": "SCALAR"
    },
    {
      "bufferView": 10,
      "componentType": 5126,
      "count": 296,
      "type": "VEC3",
      "min": [
        -0.19249999523162842,
        0.02500000037252903,
        -0.12999999523162842
      ],
      "max": [
        0.19249999523162842,
        0.39100000262260437,
        0.1589999943971634
      ]
    },
    {
      "bufferView": 11,
      "componentType": 5126,
      "count": 296,
      "type": "VEC3",
      "min": [
        -1,
        -1,
        -1
      ],
      "max": [
        1,
        1,
        1
      ]
    },
    {
      "bufferView": 12,
      "componentType": 5126,
      "count": 296,
      "type": "VEC3",
      "min": [
        0.006995410192757845,
        0.016807375475764275,
        0.03310476616024971
      ],
      "max": [
        0.5840784311294556,
        0.2917706370353699,
        0.09084171056747437
      ]
    },
    {
      "bufferView": 13,
      "componentType": 5126,
      "count": 296,
      "type": "VEC2"
    },
    {
      "bufferView": 14,
      "componentType": 5123,
      "count": 468,
      "type": "SCALAR"
    },
    {
      "bufferView": 15,
      "componentType": 5126,
      "count": 24,
      "type": "VEC3",
      "min": [
        0.164000004529953,
        0.07999999821186066,
        0.14499999582767487
      ],
      "max": [
        0.18199999630451202,
        0.3400000035762787,
        0.1550000011920929
      ]
    },
    {
      "bufferView": 16,
      "componentType": 5126,
      "count": 24,
      "type": "VEC3",
      "min": [
        -1,
        -1,
        -1
      ],
      "max": [
        1,
        1,
        1
      ]
    },
    {
      "bufferView": 17,
      "componentType": 5126,
      "count": 24,
      "type": "VEC3",
      "min": [
        1,
        1,
        1
      ],
      "max": [
        1,
        1,
        1
      ]
    },
    {
      "bufferView": 18,
      "componentType": 5126,
      "count": 24,
      "type": "VEC2"
    },
    {
      "bufferView": 19,
      "componentType": 5123,
      "count": 36,
      "type": "SCALAR"
    },
    {
      "bufferView": 20,
      "componentType": 5126,
      "count": 296,
      "type": "VEC3",
      "min": [
        -0.19249999523162842,
        0.02500000037252903,
        -0.12999999523162842
      ],
      "max": [
        0.19249999523162842,
        0.39100000262260437,
        0.1589999943971634
      ]
    },
    {
      "bufferView": 21,
      "componentType": 5126,
      "count": 296,
      "type": "VEC3",
      "min": [
        -1,
        -1,
        -1
      ],
      "max": [
        1,
        1,
        1
      ]
    },
    {
      "bufferView": 22,
      "componentType": 5126,
      "count": 296,
      "type": "VEC3",
      "min": [
        0.006995410192757845,
        0.016807375475764275,
        0.03310476616024971
      ],
      "max": [
        0.5840784311294556,
        0.2917706370353699,
        0.09084171056747437
      ]
    },
    {
      "bufferView": 23,
      "componentType": 5126,
      "count": 296,
      "type": "VEC2"
    },
    {
      "bufferView": 24,
      "componentType": 5123,
      "count": 468,
      "type": "SCALAR"
    },
    {
      "bufferView": 25,
      "componentType": 5126,
      "count": 24,
      "type": "VEC3",
      "min": [
        -0.18199999630451202,
        0.07999999821186066,
        0.14499999582767487
      ],
      "max": [
        -0.164000004529953,
        0.3400000035762787,
        0.1550000011920929
      ]
    },
    {
      "bufferView": 26,
      "componentType": 5126,
      "count": 24,
      "type": "VEC3",
      "min": [
        -1,
        -1,
        -1
      ],
      "max": [
        1,
        1,
        1
      ]
    },
    {
      "bufferView": 27,
      "componentType": 5126,
      "count": 24,
      "type": "VEC3",
      "min": [
        1,
        1,
        1
      ],
      "max": [
        1,
        1,
        1
      ]
    },
    {
      "bufferView": 28,
      "componentType": 5126,
      "count": 24,
      "type": "VEC2"
    },
    {
      "bufferView": 29,
      "componentType": 5123,
      "count": 36,
      "type": "SCALAR"
    }
  ],
  "bufferViews": [
    {
      "buffer": 0,
      "byteOffset": 0,
      "byteLength": 4032,
      "target": 34962
    },
    {
      "buffer": 0,
      "byteOffset": 4032,
      "byteLength": 4032,
      "target": 34962
    },
    {
      "buffer": 0,
      "byteOffset": 8064,
      "byteLength": 4032,
      "target": 34962
    },
    {
      "buffer": 0,
      "byteOffset": 12096,
      "byteLength": 2688,
      "target": 34962
    },
    {
      "buffer": 0,
      "byteOffset": 14784,
      "byteLength": 1080,
      "target": 34963
    },
    {
      "buffer": 0,
      "byteOffset": 15864,
      "byteLength": 576,
      "target": 34962
    },
    {
      "buffer": 0,
      "byteOffset": 16440,
      "byteLength": 576,
      "target": 34962
    },
    {
      "buffer": 0,
      "byteOffset": 17016,
      "byteLength": 576,
      "target": 34962
    },
    {
      "buffer": 0,
      "byteOffset": 17592,
      "byteLength": 384,
      "target": 34962
    },
    {
      "buffer": 0,
      "byteOffset": 17976,
      "byteLength": 144,
      "target": 34963
    },
    {
      "buffer": 0,
      "byteOffset": 18120,
      "byteLength": 3552,
      "target": 34962
    },
    {
      "buffer": 0,
      "byteOffset": 21672,
      "byteLength": 3552,
      "target": 34962
    },
    {
      "buffer": 0,
      "byteOffset": 25224,
      "byteLength": 3552,
      "target": 34962
    },
    {
      "buffer": 0,
      "byteOffset": 28776,
      "byteLength": 2368,
      "target": 34962
    },
    {
      "buffer": 0,
      "byteOffset": 31144,
      "byteLength": 936,
      "target": 34963
    },
    {
      "buffer": 0,
      "byteOffset": 32080,
      "byteLength": 288,
      "target": 34962
    },
    {
      "buffer": 0,
      "byteOffset": 32368,
      "byteLength": 288,
      "target": 34962
    },
    {
      "buffer": 0,
      "byteOffset": 32656,
      "byteLength": 288,
      "target": 34962
    },
    {
      "buffer": 0,
      "byteOffset": 32944,
      "byteLength": 192,
      "target": 34962
    },
    {
      "buffer": 0,
      "byteOffset": 33136,
      "byteLength": 72,
      "target": 34963
    },
    {
      "buffer": 0,
      "byteOffset": 33208,
      "byteLength": 3552,
      "target": 34962
    },
    {
      "buffer": 0,
      "byteOffset": 36760,
      "byteLength": 3552,
      "target": 34962
    },
    {
      "buffer": 0,
      "byteOffset": 40312,
      "byteLength": 3552,
      "target": 34962
    },
    {
      "buffer": 0,
      "byteOffset": 43864,
      "byteLength": 2368,
      "target": 34962
    },
    {
      "buffer": 0,
      "byteOffset": 46232,
      "byteLength": 936,
      "target": 34963
    },
    {
      "buffer": 0,
      "byteOffset": 47168,
      "byteLength": 288,
      "target": 34962
    },
    {
      "buffer": 0,
      "byteOffset": 47456,
      "byteLength": 288,
      "target": 34962
    },
    {
      "buffer": 0,
      "byteOffset": 47744,
      "byteLength": 288,
      "target": 34962
    },
    {
      "buffer": 0,
      "byteOffset": 48032,
      "byteLength": 192,
      "target": 34962
    },
    {
      "buffer": 0,
      "byteOffset": 48224,
      "byteLength": 72,
      "target": 34963
    }
  ],
  "buffers": [
    {
      "byteLength": 48296,
      "uri": "data:application/octet-stream;base64,"
    }
  ],
  "extras": {
    "units": "One unit is one navigation cell. +Y up; actors face +Z; origin at feet.",
    "triangles": 540,
    "primitives": 6,
    "source": "source/generate.mjs"
  }
}
