{
  "asset": {
    "version": "2.0",
    "generator": "Aegis Server Vault original procedural kit v1",
    "copyright": "2026 Aegis contributors. MIT. See LICENSE.txt."
  },
  "scene": 0,
  "scenes": [
    {
      "name": "Server Vault layered structural plinth",
      "nodes": [
        0
      ]
    }
  ],
  "nodes": [
    {
      "name": "root",
      "children": [
        1
      ]
    },
    {
      "name": "plinth",
      "translation": [
        0,
        0,
        0
      ],
      "mesh": 0
    }
  ],
  "meshes": [
    {
      "name": "plinth",
      "primitives": [
        {
          "attributes": {
            "POSITION": 0,
            "NORMAL": 1,
            "COLOR_0": 2,
            "TEXCOORD_0": 3
          },
          "indices": 4,
          "material": 0
        },
        {
          "attributes": {
            "POSITION": 5,
            "NORMAL": 6,
            "COLOR_0": 7,
            "TEXCOORD_0": 8
          },
          "indices": 9,
          "material": 2
        },
        {
          "attributes": {
            "POSITION": 10,
            "NORMAL": 11,
            "COLOR_0": 12,
            "TEXCOORD_0": 13
          },
          "indices": 14,
          "material": 1
        }
      ]
    }
  ],
  "materials": [
    {
      "name": "Ceramic and anodized alloy",
      "pbrMetallicRoughness": {
        "baseColorFactor": [
          1,
          1,
          1,
          1
        ],
        "metallicFactor": 0.42,
        "roughnessFactor": 0.56
      }
    },
    {
      "name": "Original vault identity plate",
      "pbrMetallicRoughness": {
        "baseColorTexture": {
          "index": 0
        },
        "metallicFactor": 0.25,
        "roughnessFactor": 0.62
      }
    },
    {
      "name": "Underdeck service power",
      "pbrMetallicRoughness": {
        "baseColorFactor": [
          0.046665086336880095,
          0.4969329950608704,
          0.5209955732043543,
          1
        ],
        "metallicFactor": 0.05,
        "roughnessFactor": 0.35
      },
      "emissiveFactor": [
        0.03033230611897206,
        0.32300644678956575,
        0.3386471225828303
      ]
    }
  ],
  "accessors": [
    {
      "bufferView": 0,
      "componentType": 5126,
      "count": 3072,
      "type": "VEC3",
      "min": [
        -6.170000076293945,
        -0.8050000071525574,
        -4.670000076293945
      ],
      "max": [
        6.190000057220459,
        -0.09000000357627869,
        4.7195000648498535
      ]
    },
    {
      "bufferView": 1,
      "componentType": 5126,
      "count": 3072,
      "type": "VEC3",
      "min": [
        -1,
        -1,
        -1
      ],
      "max": [
        1,
        1,
        1
      ]
    },
    {
      "bufferView": 2,
      "componentType": 5126,
      "count": 3072,
      "type": "VEC3",
      "min": [
        0.0030352699104696512,
        0.006995410192757845,
        0.012983032502233982
      ],
      "max": [
        0.34191441535949707,
        0.4793201684951782,
        0.520995557308197
      ]
    },
    {
      "bufferView": 3,
      "componentType": 5126,
      "count": 3072,
      "type": "VEC2"
    },
    {
      "bufferView": 4,
      "componentType": 5123,
      "count": 4824,
      "type": "SCALAR"
    },
    {
      "bufferView": 5,
      "componentType": 5126,
      "count": 96,
      "type": "VEC3",
      "min": [
        -5.914999961853027,
        -0.3075000047683716,
        -4.623000144958496
      ],
      "max": [
        5.914999961853027,
        -0.27250000834465027,
        4.623000144958496
      ]
    },
    {
      "bufferView": 6,
      "componentType": 5126,
      "count": 96,
      "type": "VEC3",
      "min": [
        -1,
        -1,
        -1
      ],
      "max": [
        1,
        1,
        1
      ]
    },
    {
      "bufferView": 7,
      "componentType": 5126,
      "count": 96,
      "type": "VEC3",
      "min": [
        1,
        1,
        1
      ],
      "max": [
        1,
        1,
        1
      ]
    },
    {
      "bufferView": 8,
      "componentType": 5126,
      "count": 96,
      "type": "VEC2"
    },
    {
      "bufferView": 9,
      "componentType": 5123,
      "count": 144,
      "type": "SCALAR"
    },
    {
      "bufferView": 10,
      "componentType": 5126,
      "count": 4,
      "type": "VEC3",
      "min": [
        1.7899999618530273,
        -0.6549999713897705,
        4.7230000495910645
      ],
      "max": [
        5.369999885559082,
        -0.19499999284744263,
        4.7230000495910645
      ]
    },
    {
      "bufferView": 11,
      "componentType": 5126,
      "count": 4,
      "type": "VEC3",
      "min": [
        0,
        0,
        1
      ],
      "max": [
        0,
        0,
        1
      ]
    },
    {
      "bufferView": 12,
      "componentType": 5126,
      "count": 4,
      "type": "VEC3",
      "min": [
        1,
        1,
        1
      ],
      "max": [
        1,
        1,
        1
      ]
    },
    {
      "bufferView": 13,
      "componentType": 5126,
      "count": 4,
      "type": "VEC2"
    },
    {
      "bufferView": 14,
      "componentType": 5123,
      "count": 6,
      "type": "SCALAR"
    }
  ],
  "bufferViews": [
    {
      "buffer": 0,
      "byteOffset": 0,
      "byteLength": 36864,
      "target": 34962
    },
    {
      "buffer": 0,
      "byteOffset": 36864,
      "byteLength": 36864,
      "target": 34962
    },
    {
      "buffer": 0,
      "byteOffset": 73728,
      "byteLength": 36864,
      "target": 34962
    },
    {
      "buffer": 0,
      "byteOffset": 110592,
      "byteLength": 24576,
      "target": 34962
    },
    {
      "buffer": 0,
      "byteOffset": 135168,
      "byteLength": 9648,
      "target": 34963
    },
    {
      "buffer": 0,
      "byteOffset": 144816,
      "byteLength": 1152,
      "target": 34962
    },
    {
      "buffer": 0,
      "byteOffset": 145968,
      "byteLength": 1152,
      "target": 34962
    },
    {
      "buffer": 0,
      "byteOffset": 147120,
      "byteLength": 1152,
      "target": 34962
    },
    {
      "buffer": 0,
      "byteOffset": 148272,
      "byteLength": 768,
      "target": 34962
    },
    {
      "buffer": 0,
      "byteOffset": 149040,
      "byteLength": 288,
      "target": 34963
    },
    {
      "buffer": 0,
      "byteOffset": 149328,
      "byteLength": 48,
      "target": 34962
    },
    {
      "buffer": 0,
      "byteOffset": 149376,
      "byteLength": 48,
      "target": 34962
    },
    {
      "buffer": 0,
      "byteOffset": 149424,
      "byteLength": 48,
      "target": 34962
    },
    {
      "buffer": 0,
      "byteOffset": 149472,
      "byteLength": 32,
      "target": 34962
    },
    {
      "buffer": 0,
      "byteOffset": 149504,
      "byteLength": 12,
      "target": 34963
    }
  ],
  "buffers": [
    {
      "byteLength": 149516,
      "uri": "data:application/octet-stream;base64,"
    }
  ],
  "extras": {
    "units": "One unit is one navigation cell. +Y up; actors face +Z; origin at feet.",
    "triangles": 1658,
    "primitives": 3,
    "source": "source/generate.mjs"
  },
  "images": [
    {
      "uri": "vault-mark.png"
    }
  ],
  "textures": [
    {
      "source": 0,
      "sampler": 0
    }
  ],
  "samplers": [
    {
      "magFilter": 9729,
      "minFilter": 9987,
      "wrapS": 10497,
      "wrapT": 10497
    }
  ]
}
